<svg width="19" height="18" viewBox="0 0 19 18" fill="none" xmlns="http://www.w3.org/2000/svg">
<path d="M16.4909 0H2.12973C1.58561 0 1.06378 0.210714 0.679025 0.585786C0.294275 0.960859 0.078125 1.46957 0.078125 2V16C0.078125 16.5304 0.294275 17.0391 0.679025 17.4142C1.06378 17.7893 1.58561 18 2.12973 18H16.4909C17.6193 18 18.5426 17.1 18.5426 16V2C18.5426 0.9 17.6193 0 16.4909 0ZM16.4909 16H2.12973V2H16.4909V16ZM8.28454 14H10.3361V10H14.4393V8H10.3361V4H8.28454V8H4.18133V10H8.28454V14Z" fill="black"/>
</svg>
