<svg width="32" height="24" viewBox="0 0 32 24" fill="none" xmlns="http://www.w3.org/2000/svg">
<g clip-path="url(#clip0_476_4293)">
<mask id="mask0_476_4293" style="mask-type:luminance" maskUnits="userSpaceOnUse" x="0" y="0" width="32" height="24">
<path d="M0 0H32V24H0V0Z" fill="white"/>
</mask>
<g mask="url(#mask0_476_4293)">
<path fill-rule="evenodd" clip-rule="evenodd" d="M0 0V24H32V0H0Z" fill="#2E42A5"/>
<mask id="mask1_476_4293" style="mask-type:luminance" maskUnits="userSpaceOnUse" x="0" y="0" width="32" height="24">
<path fill-rule="evenodd" clip-rule="evenodd" d="M0 0V24H32V0H0Z" fill="white"/>
</mask>
<g mask="url(#mask1_476_4293)">
<path d="M0 0H18V14H0V0Z" fill="#2B409A"/>
<mask id="mask2_476_4293" style="mask-type:luminance" maskUnits="userSpaceOnUse" x="0" y="0" width="18" height="14">
<path d="M0 0H18V14H0V0Z" fill="white"/>
</mask>
<g mask="url(#mask2_476_4293)">
<path d="M-2.00391 13.0001L1.95609 14.7371L18.0901 1.88905L20.1801 -0.692949L15.9441 -1.27295L9.36409 4.26305L4.06709 7.99305L-2.00391 13.0001Z" fill="#F7FCFF"/>
<path d="M-1.46289 14.217L0.55511 15.225L19.4281 -0.932983H16.5951L-1.46289 14.217Z" fill="#F50100"/>
<path d="M20.0024 13.0001L16.0424 14.7371L-0.0916405 1.88905L-2.18164 -0.692949L2.05436 -1.27295L8.63436 4.26305L13.9314 7.99305L20.0024 13.0001Z" fill="#F7FCFF"/>
<path d="M19.8691 13.873L17.8501 14.882L9.81414 7.96404L7.43114 7.19104L-2.38086 -0.68396H0.452141L10.2591 7.00404L12.8641 7.93104L19.8691 13.873Z" fill="#F50100"/>
<path fill-rule="evenodd" clip-rule="evenodd" d="M9.985 0H7.985V6H0V8H7.985V14H9.985V8H18V6H9.985V0Z" fill="#F50100"/>
<mask id="mask3_476_4293" style="mask-type:luminance" maskUnits="userSpaceOnUse" x="-2" y="-2" width="22" height="18">
<path d="M-2 -2H20V16H-2V-2Z" fill="white"/>
<path fill-rule="evenodd" clip-rule="evenodd" d="M9.985 0H7.985V6H0V8H7.985V14H9.985V8H18V6H9.985V0Z" fill="#F7FCFF"/>
</mask>
<g mask="url(#mask3_476_4293)">
<path d="M7.985 0V-1.5H6.485V0H7.985ZM9.985 0H11.485V-1.5H9.985V0ZM7.985 6V7.5H9.485V6H7.985ZM0 6V4.5H-1.5V6H0ZM0 8H-1.5V9.5H0V8ZM7.985 8H9.485V6.5H7.985V8ZM7.985 14H6.485V15.5H7.985V14ZM9.985 14V15.5H11.485V14H9.985ZM9.985 8V6.5H8.485V8H9.985ZM18 8V9.5H19.5V8H18ZM18 6H19.5V4.5H18V6ZM9.985 6H8.485V7.5H9.985V6ZM7.985 1.5H9.985V-1.5H7.985V1.5ZM9.485 6V0H6.485V6H9.485ZM0 7.5H7.985V4.5H0V7.5ZM1.5 8V6H-1.5V8H1.5ZM7.985 6.5H0V9.5H7.985V6.5ZM9.485 14V8H6.485V14H9.485ZM9.985 12.5H7.985V15.5H9.985V12.5ZM8.485 8V14H11.485V8H8.485ZM18 6.5H9.985V9.5H18V6.5ZM16.5 6V8H19.5V6H16.5ZM9.985 7.5H18V4.5H9.985V7.5ZM8.485 0V6H11.485V0H8.485Z" fill="#F7FCFF"/>
</g>
</g>
</g>
<path d="M8.99922 20.5L7.69722 21.703L7.82722 19.935L6.07422 19.668L7.53722 18.666L6.65422 17.129L8.34822 17.649L8.99922 16L9.64922 17.648L11.3442 17.13L10.4612 18.666L11.9242 19.668L10.1722 19.935L10.3012 21.703L8.99922 20.5ZM21.9992 13L21.1312 13.802L21.2172 12.624L20.0492 12.445L21.0242 11.777L20.4352 10.753L21.5652 11.099L21.9992 10L22.4332 11.099L23.5632 10.753L22.9732 11.777L23.9492 12.445L22.7812 12.623L22.8672 13.802L21.9992 13ZM23.9992 5L23.1312 5.802L23.2172 4.623L22.0492 4.445L23.0242 3.777L22.4352 2.753L23.5652 3.099L23.9992 2L24.4332 3.099L25.5632 2.753L24.9732 3.777L25.9492 4.445L24.7812 4.623L24.8672 5.802L23.9992 5ZM28.9992 9L28.1312 9.802L28.2172 8.623L27.0492 8.445L28.0242 7.777L27.4352 6.753L28.5652 7.099L28.9992 6L29.4332 7.099L30.5632 6.753L29.9732 7.777L30.9492 8.445L29.7812 8.623L29.8672 9.802L28.9992 9ZM24.9992 22L24.1312 22.802L24.2172 21.624L23.0492 21.445L24.0242 20.777L23.4352 19.753L24.5652 20.099L24.9992 19L25.4332 20.099L26.5632 19.753L25.9732 20.777L26.9492 21.445L25.7812 21.623L25.8672 22.802L24.9992 22ZM28.4992 14.25L27.6172 14.713L27.7862 13.732L27.0722 13.037L28.0582 12.893L28.4992 12L28.9392 12.893L29.9262 13.036L29.2122 13.732L29.3812 14.714L28.4992 14.25Z" fill="#F7FCFF"/>
</g>
</g>
<defs>
<clipPath id="clip0_476_4293">
<rect width="32" height="24" fill="white"/>
</clipPath>
</defs>
</svg>
