<svg width="15" height="16" viewBox="0 0 15 16" fill="none" xmlns="http://www.w3.org/2000/svg">
<path fill-rule="evenodd" clip-rule="evenodd" d="M5.96965 8.83333C6.75299 8.83333 7.16132 9.74333 6.68215 10.3267L6.61715 10.3983L3.18215 13.8333H6.17049C6.38289 13.8336 6.58718 13.9149 6.74163 14.0607C6.89607 14.2065 6.98902 14.4058 7.00146 14.6178C7.01391 14.8299 6.94493 15.0386 6.8086 15.2015C6.67228 15.3644 6.4789 15.4691 6.26799 15.4942L6.17049 15.5H1.37132C0.587988 15.5 0.179655 14.59 0.658821 14.0067L0.723821 13.935L4.15882 10.5H1.17049C0.958088 10.4998 0.753794 10.4184 0.599347 10.2726C0.444901 10.1268 0.351959 9.92754 0.339511 9.7155C0.327064 9.50347 0.39605 9.29468 0.532375 9.13181C0.6687 8.96893 0.862075 8.86425 1.07299 8.83917L1.17049 8.83333H5.96965ZM11.1705 1.33333C11.3915 1.33333 11.6035 1.42113 11.7597 1.57741C11.916 1.73369 12.0038 1.94565 12.0038 2.16667V12.5117L12.938 11.5775C13.0154 11.5001 13.1072 11.4386 13.2083 11.3967C13.3094 11.3548 13.4178 11.3332 13.5273 11.3332C13.6367 11.3331 13.7451 11.3546 13.8463 11.3965C13.9474 11.4383 14.0393 11.4997 14.1167 11.5771C14.1942 11.6545 14.2556 11.7463 14.2975 11.8474C14.3394 11.9485 14.361 12.0569 14.3611 12.1664C14.3611 12.2758 14.3396 12.3842 14.2977 12.4854C14.2559 12.5865 14.1945 12.6784 14.1172 12.7558L11.7597 15.1125C11.6034 15.2687 11.3915 15.3565 11.1705 15.3565C10.9495 15.3565 10.7376 15.2687 10.5813 15.1125L8.22382 12.7558C8.14645 12.6784 8.08509 12.5865 8.04324 12.4854C8.00138 12.3842 7.97986 12.2758 7.9799 12.1664C7.97994 12.0569 8.00154 11.9485 8.04346 11.8474C8.08538 11.7463 8.14681 11.6545 8.22424 11.5771C8.30166 11.4997 8.39357 11.4383 8.49471 11.3965C8.59585 11.3546 8.70424 11.3331 8.8137 11.3332C8.92316 11.3332 9.03153 11.3548 9.13264 11.3967C9.23375 11.4386 9.32562 11.5001 9.40299 11.5775L10.3372 12.5117V2.16667C10.3372 1.94565 10.425 1.73369 10.5812 1.57741C10.7375 1.42113 10.9495 1.33333 11.1705 1.33333ZM3.67049 0.5C4.23215 0.5 4.73715 0.83 4.96715 1.335L5.01215 1.44583L6.95549 6.88667C7.02712 7.08692 7.01948 7.30698 6.93412 7.50178C6.84877 7.69658 6.69216 7.85137 6.49639 7.93445C6.30061 8.01754 6.08047 8.02262 5.88107 7.94867C5.68166 7.87471 5.51808 7.72732 5.42382 7.53667L5.38549 7.44667L4.98799 6.33333H2.35299L1.95549 7.44667C1.88479 7.64788 1.73963 7.81433 1.54991 7.91175C1.36018 8.00916 1.14032 8.03013 0.935603 7.97032C0.730884 7.91052 0.556886 7.7745 0.449434 7.59028C0.341981 7.40605 0.309253 7.18763 0.357988 6.98L0.385488 6.88667L2.32882 1.445C2.42777 1.1684 2.60979 0.929143 2.84997 0.759979C3.09014 0.590815 3.37672 0.500012 3.67049 0.5ZM3.67049 2.64417L2.94799 4.66667H4.39299L3.67049 2.64417Z" fill="white"/>
</svg>
