<svg width="15" height="15" viewBox="0 0 15 15" fill="none" xmlns="http://www.w3.org/2000/svg">
<path fill-rule="evenodd" clip-rule="evenodd" d="M5.49552 8.32033C6.25964 8.32033 6.65796 9.22891 6.19054 9.81134L6.12714 9.88289L2.7764 13.3125H5.69143C5.89862 13.3128 6.0979 13.394 6.24856 13.5395C6.39922 13.6851 6.48988 13.8841 6.50202 14.0958C6.51416 14.3075 6.44687 14.516 6.31389 14.6786C6.18091 14.8412 5.99228 14.9457 5.78654 14.9708L5.69143 14.9766H1.00999C0.245867 14.9766 -0.152449 14.068 0.314963 13.4856L0.378369 13.414L3.72911 9.9844H0.814079C0.606889 9.98416 0.407606 9.90296 0.256948 9.75738C0.10629 9.6118 0.0156283 9.41283 0.00348606 9.20113C-0.0086562 8.98942 0.0586379 8.78096 0.191619 8.61834C0.3246 8.45572 0.513231 8.3512 0.71897 8.32616L0.814079 8.32033H5.49552ZM3.25275 0C3.80064 0 4.29325 0.329485 4.51761 0.833697L4.56151 0.944358L6.45717 6.3767C6.52705 6.57664 6.51959 6.79636 6.43633 6.99086C6.35307 7.18535 6.20031 7.3399 6.00933 7.42286C5.81836 7.50581 5.60362 7.51089 5.40911 7.43705C5.21459 7.36321 5.05502 7.21604 4.96308 7.02569L4.92568 6.93583L4.53794 5.82423H1.96757L1.57982 6.93583C1.51086 7.13673 1.36926 7.30292 1.18419 7.40019C0.999116 7.49745 0.784652 7.51838 0.584956 7.45867C0.385259 7.39896 0.215529 7.26315 0.110712 7.07921C0.00589526 6.89527 -0.0260299 6.6772 0.0215095 6.46989L0.0483349 6.3767L1.944 0.943526C2.04052 0.667358 2.21808 0.428474 2.45236 0.259574C2.68664 0.0906733 2.96619 1.1932e-05 3.25275 0ZM3.25275 2.14082L2.54798 4.16017H3.95753L3.25275 2.14082Z" fill="white"/>
<path fill-rule="evenodd" clip-rule="evenodd" d="M10.9189 15C10.7033 15 10.4966 14.9123 10.3441 14.7563C10.1917 14.6003 10.106 14.3886 10.106 14.168L10.106 3.83911L9.19479 4.77182C9.11931 4.84912 9.02971 4.91045 8.93108 4.95231C8.83245 4.99417 8.72673 5.01573 8.61995 5.01577C8.51318 5.01581 8.40745 4.99432 8.30879 4.95253C8.21013 4.91075 8.12048 4.84948 8.04495 4.77223C7.96943 4.69498 7.9095 4.60326 7.86861 4.50231C7.82771 4.40136 7.80665 4.29315 7.80661 4.18386C7.80657 4.07457 7.82756 3.96635 7.86839 3.86537C7.90921 3.76439 7.96907 3.67262 8.04455 3.59532L10.3442 1.24233C10.4967 1.08635 10.7034 0.998721 10.9189 0.998721C11.1345 0.998721 11.3412 1.08635 11.4936 1.24233L13.7933 3.59532C13.8688 3.67262 13.9286 3.76439 13.9695 3.86537C14.0103 3.96635 14.0313 4.07457 14.0312 4.18386C14.0312 4.29315 14.0101 4.40136 13.9692 4.50231C13.9284 4.60326 13.8684 4.69498 13.7929 4.77223C13.7174 4.84948 13.6277 4.91075 13.5291 4.95253C13.4304 4.99432 13.3247 5.01581 13.2179 5.01577C13.1111 5.01573 13.0054 4.99417 12.9068 4.95231C12.8082 4.91045 12.7185 4.84912 12.6431 4.77182L11.7318 3.83911L11.7318 14.168C11.7318 14.3886 11.6462 14.6003 11.4937 14.7563C11.3413 14.9123 11.1345 15 10.9189 15Z" fill="white"/>
</svg>
