<svg width="32" height="24" viewBox="0 0 32 24" fill="none" xmlns="http://www.w3.org/2000/svg">
<g clip-path="url(#clip0_476_4292)">
<mask id="mask0_476_4292" style="mask-type:luminance" maskUnits="userSpaceOnUse" x="0" y="0" width="32" height="24">
<path d="M0 0H32V24H0V0Z" fill="white"/>
</mask>
<g mask="url(#mask0_476_4292)">
<path fill-rule="evenodd" clip-rule="evenodd" d="M0 0V24H32V0H0Z" fill="#009933"/>
<mask id="mask1_476_4292" style="mask-type:luminance" maskUnits="userSpaceOnUse" x="0" y="0" width="32" height="24">
<path fill-rule="evenodd" clip-rule="evenodd" d="M0 0V24H32V0H0Z" fill="white"/>
</mask>
<g mask="url(#mask1_476_4292)">
<g filter="url(#filter0_d_476_4292)">
<path fill-rule="evenodd" clip-rule="evenodd" d="M15.9266 3.70398L28.1286 12.208L15.7596 20.17L3.80859 12.043L15.9266 3.70398Z" fill="#FFD221"/>
<path fill-rule="evenodd" clip-rule="evenodd" d="M15.9266 3.70398L28.1286 12.208L15.7596 20.17L3.80859 12.043L15.9266 3.70398Z" fill="url(#paint0_linear_476_4292)"/>
</g>
<path fill-rule="evenodd" clip-rule="evenodd" d="M16 17.2C17.3261 17.2 18.5979 16.6732 19.5355 15.7355C20.4732 14.7978 21 13.526 21 12.2C21 10.8739 20.4732 9.6021 19.5355 8.66442C18.5979 7.72674 17.3261 7.19995 16 7.19995C14.6739 7.19995 13.4021 7.72674 12.4645 8.66442C11.5268 9.6021 11 10.8739 11 12.2C11 13.526 11.5268 14.7978 12.4645 15.7355C13.4021 16.6732 14.6739 17.2 16 17.2Z" fill="#2E42A5"/>
<mask id="mask2_476_4292" style="mask-type:luminance" maskUnits="userSpaceOnUse" x="11" y="7" width="10" height="11">
<path fill-rule="evenodd" clip-rule="evenodd" d="M16 17.2C17.3261 17.2 18.5979 16.6732 19.5355 15.7355C20.4732 14.7978 21 13.526 21 12.2C21 10.8739 20.4732 9.6021 19.5355 8.66442C18.5979 7.72674 17.3261 7.19995 16 7.19995C14.6739 7.19995 13.4021 7.72674 12.4645 8.66442C11.5268 9.6021 11 10.8739 11 12.2C11 13.526 11.5268 14.7978 12.4645 15.7355C13.4021 16.6732 14.6739 17.2 16 17.2Z" fill="white"/>
</mask>
<g mask="url(#mask2_476_4292)">
<path fill-rule="evenodd" clip-rule="evenodd" d="M14.3798 14.5699L14.1567 14.6869L14.1988 14.4389L14.0188 14.2629L14.2688 14.2259L14.3798 13.9999L14.4917 14.2259L14.7417 14.2629L14.5608 14.4389L14.6027 14.6869L14.3798 14.5699ZM16.3797 14.5699L16.1567 14.6869L16.1987 14.4389L16.0187 14.2629L16.2687 14.2259L16.3797 13.9999L16.4918 14.2259L16.7418 14.2629L16.5608 14.4389L16.6028 14.6869L16.3797 14.5699ZM16.3797 15.7699L16.1567 15.8869L16.1987 15.6389L16.0187 15.4629L16.2687 15.4259L16.3797 15.1999L16.4918 15.4259L16.7418 15.4629L16.5608 15.6389L16.6028 15.8869L16.3797 15.7699ZM15.3798 11.5699L15.1567 11.6869L15.1988 11.4389L15.0188 11.2629L15.2688 11.2259L15.3798 10.9999L15.4917 11.2259L15.7417 11.2629L15.5608 11.4389L15.6027 11.6869L15.3798 11.5699ZM15.3798 13.5699L15.1567 13.6869L15.1988 13.4389L15.0188 13.2629L15.2688 13.2259L15.3798 12.9999L15.4917 13.2259L15.7417 13.2629L15.5608 13.4389L15.6027 13.6869L15.3798 13.5699ZM13.9797 12.5699L13.7568 12.6869L13.7987 12.4389L13.6188 12.2629L13.8688 12.2259L13.9797 11.9999L14.0918 12.2259L14.3418 12.2629L14.1608 12.4389L14.2028 12.6869L13.9797 12.5699ZM12.5798 13.3699L12.3568 13.4869L12.3988 13.2389L12.2188 13.0629L12.4688 13.0259L12.5798 12.7999L12.6918 13.0259L12.9418 13.0629L12.7607 13.2389L12.8028 13.4869L12.5798 13.3699ZM17.1798 9.9699L16.9568 10.0869L16.9988 9.8389L16.8188 9.6629L17.0688 9.6259L17.1798 9.3999L17.2917 9.6259L17.5417 9.6629L17.3608 9.8389L17.4028 10.0869L17.1798 9.9699Z" fill="#F7FCFF"/>
<path d="M9.92483 10.9969L10.0748 9.00293C14.8728 9.36493 18.6598 10.9429 21.3878 13.7479L19.9538 15.1429C17.5898 12.7099 14.2618 11.3239 9.92383 10.9969H9.92483Z" fill="#F7FCFF"/>
<path d="M12.2901 10.603L12.3401 10.105C15.4341 10.425 18.0871 11.61 20.2921 13.657L19.9521 14.023C17.8271 12.052 15.2751 10.913 12.2891 10.603H12.2901Z" fill="#009933"/>
</g>
</g>
</g>
</g>
<defs>
<filter id="filter0_d_476_4292" x="3.80859" y="3.70398" width="24.3203" height="16.4659" filterUnits="userSpaceOnUse" color-interpolation-filters="sRGB">
<feFlood flood-opacity="0" result="BackgroundImageFix"/>
<feColorMatrix in="SourceAlpha" type="matrix" values="0 0 0 0 0 0 0 0 0 0 0 0 0 0 0 0 0 0 127 0" result="hardAlpha"/>
<feOffset/>
<feColorMatrix type="matrix" values="0 0 0 0 0.0313726 0 0 0 0 0.368627 0 0 0 0 0 0 0 0 0.28 0"/>
<feBlend mode="normal" in2="BackgroundImageFix" result="effect1_dropShadow_476_4292"/>
<feBlend mode="normal" in="SourceGraphic" in2="effect1_dropShadow_476_4292" result="shape"/>
</filter>
<linearGradient id="paint0_linear_476_4292" x1="31.9996" y1="24" x2="31.9996" y2="-2.09808e-05" gradientUnits="userSpaceOnUse">
<stop stop-color="#FFC600"/>
<stop offset="1" stop-color="#FFDE42"/>
</linearGradient>
<clipPath id="clip0_476_4292">
<rect width="32" height="24" fill="white"/>
</clipPath>
</defs>
</svg>
