<svg width="27" height="30" viewBox="0 0 27 30" fill="none" xmlns="http://www.w3.org/2000/svg">
<path d="M7.85869 6.47276V3.38335C7.85869 2.53376 8.11541 1.80621 8.62884 1.20069C9.1414 0.596192 9.75787 0.293945 10.4783 0.293945H15.7174C16.4378 0.293945 17.0547 0.596192 17.5681 1.20069C18.0807 1.80621 18.3369 2.53376 18.3369 3.38335V6.47276H23.5761C24.2965 6.47276 24.9134 6.77552 25.4268 7.38104C25.9394 7.98553 26.1956 8.71257 26.1956 9.56216V26.5539C26.1956 27.4035 25.9394 28.131 25.4268 28.7366C24.9134 29.341 24.2965 29.6433 23.5761 29.6433H2.61956C1.89918 29.6433 1.28271 29.341 0.770152 28.7366C0.256717 28.131 0 27.4035 0 26.5539V9.56216C0 8.71257 0.256717 7.98553 0.770152 7.38104C1.28271 6.77552 1.89918 6.47276 2.61956 6.47276H7.85869ZM10.4783 6.47276H15.7174V3.38335H10.4783V6.47276ZM23.5761 20.3751H17.0272V21.9198C17.0272 22.3574 16.9019 22.7241 16.6513 23.0196C16.3998 23.3162 16.0885 23.4645 15.7174 23.4645H10.4783C10.1072 23.4645 9.7963 23.3162 9.54569 23.0196C9.29421 22.7241 9.16847 22.3574 9.16847 21.9198V20.3751H2.61956V26.5539H23.5761V20.3751ZM11.788 20.3751H14.4076V17.2857H11.788V20.3751ZM2.61956 17.2857H9.16847V15.741C9.16847 15.3033 9.29421 14.9362 9.54569 14.6396C9.7963 14.344 10.1072 14.1963 10.4783 14.1963H15.7174C16.0885 14.1963 16.3998 14.344 16.6513 14.6396C16.9019 14.9362 17.0272 15.3033 17.0272 15.741V17.2857H23.5761V9.56216H2.61956V17.2857Z" fill="white"/>
</svg>
