<svg width="19" height="20" viewBox="0 0 19 20" xmlns="http://www.w3.org/2000/svg">
<path d="M2.12973 20C1.56554 20 1.08238 19.8043 0.68027 19.413C0.27884 19.021 0.078125 18.55 0.078125 18V4C0.078125 3.45 0.27884 2.97933 0.68027 2.588C1.08238 2.196 1.56554 2 2.12973 2H3.15553V0H5.20713V2H13.4135V0H15.4651V2H16.4909C17.0551 2 17.5383 2.196 17.9404 2.588C18.3418 2.97933 18.5426 3.45 18.5426 4V18C18.5426 18.55 18.3418 19.021 17.9404 19.413C17.5383 19.8043 17.0551 20 16.4909 20H2.12973ZM2.12973 18H16.4909V8H2.12973V18ZM2.12973 6H16.4909V4H2.12973V6ZM9.31034 12C9.01969 12 8.77624 11.904 8.57997 11.712C8.38301 11.5207 8.28454 11.2833 8.28454 11C8.28454 10.7167 8.38301 10.479 8.57997 10.287C8.77624 10.0957 9.01969 10 9.31034 10C9.60098 10 9.84478 10.0957 10.0417 10.287C10.238 10.479 10.3361 10.7167 10.3361 11C10.3361 11.2833 10.238 11.5207 10.0417 11.712C9.84478 11.904 9.60098 12 9.31034 12ZM5.20713 12C4.91649 12 4.67269 11.904 4.47574 11.712C4.27947 11.5207 4.18133 11.2833 4.18133 11C4.18133 10.7167 4.27947 10.479 4.47574 10.287C4.67269 10.0957 4.91649 10 5.20713 10C5.49778 10 5.74157 10.0957 5.93853 10.287C6.1348 10.479 6.23293 10.7167 6.23293 11C6.23293 11.2833 6.1348 11.5207 5.93853 11.712C5.74157 11.904 5.49778 12 5.20713 12ZM13.4135 12C13.1229 12 12.8794 11.904 12.6832 11.712C12.4862 11.5207 12.3877 11.2833 12.3877 11C12.3877 10.7167 12.4862 10.479 12.6832 10.287C12.8794 10.0957 13.1229 10 13.4135 10C13.7042 10 13.9476 10.0957 14.1439 10.287C14.3409 10.479 14.4393 10.7167 14.4393 11C14.4393 11.2833 14.3409 11.5207 14.1439 11.712C13.9476 11.904 13.7042 12 13.4135 12ZM9.31034 16C9.01969 16 8.77624 15.904 8.57997 15.712C8.38301 15.5207 8.28454 15.2833 8.28454 15C8.28454 14.7167 8.38301 14.4793 8.57997 14.288C8.77624 14.096 9.01969 14 9.31034 14C9.60098 14 9.84478 14.096 10.0417 14.288C10.238 14.4793 10.3361 14.7167 10.3361 15C10.3361 15.2833 10.238 15.5207 10.0417 15.712C9.84478 15.904 9.60098 16 9.31034 16ZM5.20713 16C4.91649 16 4.67269 15.904 4.47574 15.712C4.27947 15.5207 4.18133 15.2833 4.18133 15C4.18133 14.7167 4.27947 14.4793 4.47574 14.288C4.67269 14.096 4.91649 14 5.20713 14C5.49778 14 5.74157 14.096 5.93853 14.288C6.1348 14.4793 6.23293 14.7167 6.23293 15C6.23293 15.2833 6.1348 15.5207 5.93853 15.712C5.74157 15.904 5.49778 16 5.20713 16ZM13.4135 16C13.1229 16 12.8794 15.904 12.6832 15.712C12.4862 15.5207 12.3877 15.2833 12.3877 15C12.3877 14.7167 12.4862 14.4793 12.6832 14.288C12.8794 14.096 13.1229 14 13.4135 14C13.7042 14 13.9476 14.096 14.1439 14.288C14.3409 14.4793 14.4393 14.7167 14.4393 15C14.4393 15.2833 14.3409 15.5207 14.1439 15.712C13.9476 15.904 13.7042 16 13.4135 16Z"/>
</svg>
