<svg width="20" height="15" viewBox="0 0 20 15" fill="none" xmlns="http://www.w3.org/2000/svg">
<path d="M1.44444 15C1.04722 15 0.707055 14.8533 0.423944 14.5597C0.141315 14.2657 0 13.9125 0 13.5V3C0 2.5875 0.141315 2.2345 0.423944 1.941C0.707055 1.647 1.04722 1.5 1.44444 1.5H2.16667V0H3.61111V1.5H9.38889V0H10.8333V1.5H11.5556C11.9528 1.5 12.2929 1.647 12.5761 1.941C12.8587 2.2345 13 2.5875 13 3V13.5C13 13.9125 12.8587 14.2657 12.5761 14.5597C12.2929 14.8533 11.9528 15 11.5556 15H1.44444ZM1.44444 13.5H11.5556V6H1.44444V13.5ZM1.44444 4.5H11.5556V3H1.44444V4.5ZM6.5 9C6.29537 9 6.12396 8.928 5.98578 8.784C5.84711 8.6405 5.77778 8.4625 5.77778 8.25C5.77778 8.0375 5.84711 7.85925 5.98578 7.71525C6.12396 7.57175 6.29537 7.5 6.5 7.5C6.70463 7.5 6.87628 7.57175 7.01494 7.71525C7.15313 7.85925 7.22222 8.0375 7.22222 8.25C7.22222 8.4625 7.15313 8.6405 7.01494 8.784C6.87628 8.928 6.70463 9 6.5 9ZM3.61111 9C3.40648 9 3.23483 8.928 3.09617 8.784C2.95798 8.6405 2.88889 8.4625 2.88889 8.25C2.88889 8.0375 2.95798 7.85925 3.09617 7.71525C3.23483 7.57175 3.40648 7.5 3.61111 7.5C3.81574 7.5 3.98739 7.57175 4.12606 7.71525C4.26424 7.85925 4.33333 8.0375 4.33333 8.25C4.33333 8.4625 4.26424 8.6405 4.12606 8.784C3.98739 8.928 3.81574 9 3.61111 9ZM9.38889 9C9.18426 9 9.01285 8.928 8.87467 8.784C8.736 8.6405 8.66667 8.4625 8.66667 8.25C8.66667 8.0375 8.736 7.85925 8.87467 7.71525C9.01285 7.57175 9.18426 7.5 9.38889 7.5C9.59352 7.5 9.76493 7.57175 9.90311 7.71525C10.0418 7.85925 10.1111 8.0375 10.1111 8.25C10.1111 8.4625 10.0418 8.6405 9.90311 8.784C9.76493 8.928 9.59352 9 9.38889 9ZM6.5 12C6.29537 12 6.12396 11.928 5.98578 11.784C5.84711 11.6405 5.77778 11.4625 5.77778 11.25C5.77778 11.0375 5.84711 10.8595 5.98578 10.716C6.12396 10.572 6.29537 10.5 6.5 10.5C6.70463 10.5 6.87628 10.572 7.01494 10.716C7.15313 10.8595 7.22222 11.0375 7.22222 11.25C7.22222 11.4625 7.15313 11.6405 7.01494 11.784C6.87628 11.928 6.70463 12 6.5 12ZM3.61111 12C3.40648 12 3.23483 11.928 3.09617 11.784C2.95798 11.6405 2.88889 11.4625 2.88889 11.25C2.88889 11.0375 2.95798 10.8595 3.09617 10.716C3.23483 10.572 3.40648 10.5 3.61111 10.5C3.81574 10.5 3.98739 10.572 4.12606 10.716C4.26424 10.8595 4.33333 11.0375 4.33333 11.25C4.33333 11.4625 4.26424 11.6405 4.12606 11.784C3.98739 11.928 3.81574 12 3.61111 12ZM9.38889 12C9.18426 12 9.01285 11.928 8.87467 11.784C8.736 11.6405 8.66667 11.4625 8.66667 11.25C8.66667 11.0375 8.736 10.8595 8.87467 10.716C9.01285 10.572 9.18426 10.5 9.38889 10.5C9.59352 10.5 9.76493 10.572 9.90311 10.716C10.0418 10.8595 10.1111 11.0375 10.1111 11.25C10.1111 11.4625 10.0418 11.6405 9.90311 11.784C9.76493 11.928 9.59352 12 9.38889 12Z" fill="white"/>
<path fill-rule="evenodd" clip-rule="evenodd" d="M17 1C17.2078 1 17.4071 1.08765 17.5541 1.24367C17.701 1.3997 17.7836 1.61131 17.7836 1.83196V12.1599L18.6619 11.2273C18.7347 11.15 18.821 11.0886 18.9161 11.0468C19.0112 11.0049 19.1131 10.9834 19.216 10.9833C19.3189 10.9833 19.4208 11.0048 19.5159 11.0465C19.611 11.0883 19.6975 11.1496 19.7703 11.2268C19.8431 11.3041 19.9008 11.3958 19.9402 11.4967C19.9797 11.5977 20 11.7059 20 11.8152C20 11.9244 19.9798 12.0326 19.9404 12.1336C19.9011 12.2346 19.8434 12.3263 19.7707 12.4036L17.554 14.7564C17.407 14.9124 17.2078 15 17 15C16.7922 15 16.593 14.9124 16.446 14.7564L14.2293 12.4036C14.1566 12.3263 14.0989 12.2346 14.0596 12.1336C14.0202 12.0326 14 11.9244 14 11.8152C14 11.7059 14.0203 11.5977 14.0598 11.4967C14.0992 11.3958 14.1569 11.3041 14.2297 11.2268C14.3025 11.1496 14.389 11.0883 14.4841 11.0465C14.5792 11.0048 14.6811 10.9833 14.784 10.9833C14.8869 10.9834 14.9888 11.0049 15.0839 11.0468C15.179 11.0886 15.2653 11.15 15.3381 11.2273L16.2164 12.1599V1.83196C16.2164 1.61131 16.299 1.3997 16.4459 1.24367C16.5929 1.08765 16.7922 1 17 1Z" fill="white"/>
</svg>
