<svg width="21" height="20" viewBox="0 0 21 20" fill="none" xmlns="http://www.w3.org/2000/svg">
<path d="M6.61591 15L10.3088 11.4L14.0017 15L15.4378 13.6L11.7449 10L15.4378 6.4L14.0017 5L10.3088 8.6L6.61591 5L5.17979 6.4L8.87267 10L5.17979 13.6L6.61591 15ZM10.3088 20C8.88977 20 7.55623 19.7373 6.30817 19.212C5.06011 18.6873 3.97447 17.975 3.05125 17.075C2.12803 16.175 1.39732 15.1167 0.859113 13.9C0.320225 12.6833 0.0507812 11.3833 0.0507812 10C0.0507812 8.61667 0.320225 7.31667 0.859113 6.1C1.39732 4.88333 2.12803 3.825 3.05125 2.925C3.97447 2.025 5.06011 1.31233 6.30817 0.787C7.55623 0.262333 8.88977 0 10.3088 0C11.7278 0 13.0614 0.262333 14.3094 0.787C15.5575 1.31233 16.6431 2.025 17.5663 2.925C18.4896 3.825 19.2203 4.88333 19.7585 6.1C20.2974 7.31667 20.5668 8.61667 20.5668 10C20.5668 11.3833 20.2974 12.6833 19.7585 13.9C19.2203 15.1167 18.4896 16.175 17.5663 17.075C16.6431 17.975 15.5575 18.6873 14.3094 19.212C13.0614 19.7373 11.7278 20 10.3088 20ZM10.3088 18C12.5998 18 14.5402 17.225 16.1302 15.675C17.7202 14.125 18.5152 12.2333 18.5152 10C18.5152 7.76667 17.7202 5.875 16.1302 4.325C14.5402 2.775 12.5998 2 10.3088 2C8.01784 2 6.07736 2.775 4.48737 4.325C2.89738 5.875 2.10238 7.76667 2.10238 10C2.10238 12.2333 2.89738 14.125 4.48737 15.675C6.07736 17.225 8.01784 18 10.3088 18Z" fill="black"/>
</svg>
