<svg width="32" height="24" viewBox="0 0 32 24" fill="none" xmlns="http://www.w3.org/2000/svg">
<g clip-path="url(#clip0_476_4288)">
<mask id="mask0_476_4288" style="mask-type:luminance" maskUnits="userSpaceOnUse" x="0" y="0" width="32" height="24">
<path fill-rule="evenodd" clip-rule="evenodd" d="M0 0H32V24H0V0Z" fill="white"/>
</mask>
<g mask="url(#mask0_476_4288)">
<path fill-rule="evenodd" clip-rule="evenodd" d="M0 0H32V24H0V0Z" fill="#E31D1C"/>
<path fill-rule="evenodd" clip-rule="evenodd" d="M15.0165 4.54795L14.0065 5.15795L14.2365 3.96795L13.3955 3.07795L14.5345 3.02895L15.0165 1.91895L15.4985 3.02895H16.6355L15.7955 3.96895L16.0485 5.15895L15.0165 4.54795ZM7.01853 9.60695L4.13753 11.1579L4.79453 8.13195L2.39453 5.86695L5.64453 5.74395L7.01853 2.91795L8.39253 5.74395H11.6355L9.24053 8.13195L9.96053 11.1579L7.01753 9.60794L7.01853 9.60695ZM17.0165 8.54795L16.0065 9.15795L16.2365 7.96795L15.3955 7.07795L16.5345 7.02894L17.0165 5.91895L17.4985 7.02894H18.6355L17.7955 7.96895L18.0485 9.15895L17.0165 8.54795ZM16.0165 12.5479L15.0065 13.1579L15.2365 11.9679L14.3955 11.0779L15.5345 11.0289L16.0165 9.91894L16.4985 11.0289H17.6355L16.7955 11.9689L17.0485 13.1589L16.0165 12.5479ZM13.0165 15.5479L12.0065 16.1579L12.2365 14.9679L11.3955 14.0779L12.5345 14.0289L13.0165 12.9189L13.4985 14.0289H14.6355L13.7955 14.9689L14.0485 16.1589L13.0165 15.5479Z" fill="#FECA00"/>
</g>
</g>
<defs>
<clipPath id="clip0_476_4288">
<rect width="32" height="24" fill="white"/>
</clipPath>
</defs>
</svg>
