<svg width="25" height="22" viewBox="0 0 25 22" fill="none" xmlns="http://www.w3.org/2000/svg">
<path d="M12.5 0.253418C12.0408 0.253418 11.5862 0.343858 11.1619 0.519573C10.7377 0.695289 10.3523 0.952839 10.0276 1.27752C9.70292 1.6022 9.44537 1.98765 9.26966 2.41187C9.09394 2.83608 9.0035 3.29075 9.0035 3.74992C9.0035 4.20908 9.09394 4.66376 9.26966 5.08797C9.44537 5.51219 9.70292 5.89764 10.0276 6.22232C10.3523 6.547 10.7377 6.80455 11.1619 6.98026C11.5862 7.15598 12.0408 7.24642 12.5 7.24642C13.4273 7.24642 14.3167 6.87804 14.9724 6.22232C15.6281 5.5666 15.9965 4.67725 15.9965 3.74992C15.9965 2.82259 15.6281 1.93324 14.9724 1.27752C14.3167 0.621798 13.4273 0.253418 12.5 0.253418ZM20.375 1.99992C19.6788 1.99992 19.0111 2.27648 18.5188 2.76876C18.0266 3.26105 17.75 3.92872 17.75 4.62492C17.75 5.32111 18.0266 5.98879 18.5188 6.48107C19.0111 6.97336 19.6788 7.24992 20.375 7.24992C21.0712 7.24992 21.7389 6.97336 22.2312 6.48107C22.7234 5.98879 23 5.32111 23 4.62492C23 3.92872 22.7234 3.26105 22.2312 2.76876C21.7389 2.27648 21.0712 1.99992 20.375 1.99992ZM4.625 1.99992C3.92881 1.99992 3.26113 2.27648 2.76885 2.76876C2.27656 3.26105 2 3.92872 2 4.62492C2 5.32111 2.27656 5.98879 2.76885 6.48107C3.26113 6.97336 3.92881 7.24992 4.625 7.24992C5.32119 7.24992 5.98887 6.97336 6.48116 6.48107C6.97344 5.98879 7.25 5.32111 7.25 4.62492C7.25 3.92872 6.97344 3.26105 6.48116 2.76876C5.98887 2.27648 5.32119 1.99992 4.625 1.99992ZM7.25 10.7377C7.25323 10.2757 7.43904 9.83369 7.76687 9.50814C8.09471 9.1826 8.53799 8.99991 9 8.99992H16C16.4641 8.99992 16.9092 9.18429 17.2374 9.51248C17.5656 9.84067 17.75 10.2858 17.75 10.7499V15.9999C17.7499 16.5507 17.6637 17.098 17.4945 17.6222C17.107 18.8099 16.3088 19.8206 15.2432 20.4727C14.1775 21.1249 12.9143 21.3758 11.6803 21.1804C10.4464 20.985 9.32249 20.3561 8.51049 19.4066C7.69849 18.4571 7.25158 17.2493 7.25 15.9999V10.7377ZM5.5 10.7499C5.5 10.1112 5.66975 9.51442 5.969 8.99992H2C1.53587 8.99992 1.09075 9.18429 0.762563 9.51248C0.434375 9.84067 0.25 10.2858 0.25 10.7499V15.1249C0.249762 15.8412 0.425396 16.5466 0.761477 17.1791C1.09756 17.8117 1.58381 18.352 2.17752 18.7527C2.77124 19.1534 3.45426 19.4022 4.1666 19.4773C4.87894 19.5523 5.59881 19.4513 6.263 19.1832C5.75931 18.1972 5.49776 17.1054 5.5 15.9982V10.7499ZM19.5 10.7499V15.9999C19.5 17.1462 19.2253 18.2277 18.737 19.1832C19.4012 19.4513 20.1211 19.5523 20.8334 19.4773C21.5457 19.4022 22.2288 19.1534 22.8225 18.7527C23.4162 18.352 23.9024 17.8117 24.2385 17.1791C24.5746 16.5466 24.7502 15.8412 24.75 15.1249V10.7499C24.75 10.2858 24.5656 9.84067 24.2374 9.51248C23.9092 9.18429 23.4641 8.99992 23 8.99992H19.031C19.3285 9.51442 19.5 10.1112 19.5 10.7499Z" fill="#F5F7FA"/>
</svg>
