<svg width="21" height="20" viewBox="0 0 21 20" fill="none" xmlns="http://www.w3.org/2000/svg">
<path d="M12.1387 13.172L14.3145 11.051L20.4652 17.047L18.2894 19.168L12.1387 13.172ZM15.9516 8.00003C17.9314 8.00003 19.5419 6.43003 19.5419 4.50003C19.5419 3.92003 19.3778 3.38003 19.1214 2.90003L16.3517 5.60003L14.8233 4.11003L17.5929 1.41003C17.1005 1.16003 16.5466 1.00003 15.9516 1.00003C13.9718 1.00003 12.3613 2.57003 12.3613 4.50003C12.3613 4.91003 12.4434 5.30003 12.5768 5.66003L10.679 7.51003L8.85309 5.73003L9.58141 5.02003L8.13503 3.61003L10.3097 1.49003C9.73272 0.928229 8.95055 0.612671 8.13503 0.612671C7.31952 0.612671 6.53735 0.928229 5.96033 1.49003L2.329 5.03003L3.77538 6.44003H0.882616L0.154297 7.15003L3.78563 10.69L4.51395 9.98003V7.15003L5.96033 8.56003L6.68865 7.85003L8.51458 9.63003L0.91339 17.04L3.08809 19.16L14.7617 7.79003C15.131 7.92003 15.5311 8.00003 15.9516 8.00003Z" fill="black"/>
</svg>
