<svg width="19" height="18" viewBox="0 0 19 18" fill="none" xmlns="http://www.w3.org/2000/svg">
<path d="M16.4909 0H2.12973C1.00135 0 0.078125 0.9 0.078125 2V16C0.078125 17.1 1.00135 18 2.12973 18H16.4909C17.6193 18 18.5426 17.1 18.5426 16V2C18.5426 0.9 17.6193 0 16.4909 0ZM9.31034 3C11.2901 3 12.9006 4.57 12.9006 6.5C12.9006 8.43 11.2901 10 9.31034 10C7.33054 10 5.72003 8.43 5.72003 6.5C5.72003 4.57 7.33054 3 9.31034 3ZM16.4909 16H2.12973V15.77C2.12973 15.15 2.41695 14.57 2.90934 14.19C4.66346 12.82 6.88945 12 9.31034 12C11.7312 12 13.9572 12.82 15.7113 14.19C16.2037 14.57 16.4909 15.16 16.4909 15.77V16Z" fill="black"/>
</svg>
