<svg width="21" height="21" viewBox="0 0 21 21" fill="none" xmlns="http://www.w3.org/2000/svg">
<path fill-rule="evenodd" clip-rule="evenodd" d="M17.5893 1.83398H9.28014C8.36364 1.83398 7.61831 2.58148 7.61831 3.50065V6.83398H4.29464C3.37814 6.83398 2.63281 7.58149 2.63281 8.50065V16.834C2.63281 17.7532 3.37814 18.5007 4.29464 18.5007H12.6038C13.5203 18.5007 14.2656 17.7532 14.2656 16.834V13.5007H17.5893C18.5058 13.5007 19.2511 12.7532 19.2511 11.834V3.50065C19.2511 2.58148 18.5058 1.83398 17.5893 1.83398V1.83398ZM4.29464 16.834V8.50065H12.6038L12.6055 16.834H4.29464V16.834ZM17.5893 11.834H14.2656V8.50065C14.2656 7.58149 13.5203 6.83398 12.6038 6.83398H9.28014V3.50065H17.5893V11.834V11.834Z" fill="white"/>
<path fill-rule="evenodd" clip-rule="evenodd" d="M5.95312 10.167H10.9386V11.8337H5.95312V10.167ZM5.95312 13.5003H10.9386V15.167H5.95312V13.5003Z" fill="white"/>
</svg>
