<svg width="32" height="24" viewBox="0 0 32 24" fill="none" xmlns="http://www.w3.org/2000/svg">
<g clip-path="url(#clip0_476_4305)">
<path fill-rule="evenodd" clip-rule="evenodd" d="M0 0V24H32V0H0Z" fill="#F7FCFF"/>
<path fill-rule="evenodd" clip-rule="evenodd" d="M15.9992 18.22C19.2022 18.22 21.7982 15.462 21.7982 12.061C21.7982 8.65998 19.2022 5.90198 15.9992 5.90198C12.7962 5.90198 10.1992 8.65998 10.1992 12.061C10.1992 15.462 12.7962 18.22 15.9992 18.22Z" fill="#3D58DB"/>
<path fill-rule="evenodd" clip-rule="evenodd" d="M22.0015 12.533C22.0015 12.533 21.6755 9.62905 19.2655 9.47105C16.8555 9.31305 16.2055 11.601 16.0655 12.207C15.9255 12.813 15.5745 14.429 13.0355 14.429C10.4985 14.429 10.2695 10.319 10.2695 10.319V5.47205H22.0015V12.532V12.533Z" fill="#E31D1C"/>
<path fill-rule="evenodd" clip-rule="evenodd" d="M7.29959 2.05196L8.21359 2.87996L3.97359 7.83196L3.05859 7.00396L7.29959 2.05196ZM8.80759 3.39196L9.72259 4.21896L5.63459 9.09896L4.71959 8.27096L8.80759 3.39196ZM11.2246 5.57496L10.3096 4.74696L6.20959 9.66396L7.12559 10.492L11.2246 5.57496ZM25.3636 1.70496L24.4476 2.52996L26.0356 4.39196L26.9506 3.56796L25.3636 1.70496ZM28.1846 5.13196L27.2696 5.95596L28.8576 7.81896L29.7726 6.99496L28.1846 5.13196ZM21.4276 5.21196L22.3426 4.38796L23.9296 6.25096L23.0146 7.07596L21.4276 5.21196ZM25.1646 7.81496L24.2496 8.63896L25.8366 10.502L26.7516 9.67796L25.1646 7.81496ZM22.9946 3.83096L23.9106 3.00696L28.3286 8.38696L27.4136 9.21196L22.9946 3.83096ZM26.0546 14.243L25.1316 13.415L23.5316 15.285L24.4536 16.113L26.0546 14.243ZM23.3636 17.534L22.4406 16.706L20.8396 18.576L21.7626 19.404L23.3636 17.534ZM28.0466 16.033L28.9686 16.86L27.3686 18.73L26.4456 17.903L28.0456 16.033H28.0466ZM26.4096 20.228L25.4866 19.4L23.8856 21.27L24.8086 22.098L26.4096 20.228ZM23.9656 17.978L24.8886 18.806L23.2186 20.803L22.2956 19.975L23.9656 17.978ZM27.6306 15.478L26.7076 14.651L25.0366 16.648L25.9596 17.475L27.6296 15.478H27.6306ZM6.40659 14.89L7.32159 14.065L11.4056 18.745L10.4906 19.57L6.40659 14.89ZM7.35859 18.983L8.27459 18.158L9.99959 20.054L9.08459 20.879L7.35859 18.983ZM4.30859 16.691L3.39359 17.516L7.49959 22.26L8.41459 21.434L4.30859 16.691ZM4.96059 16.152L5.87559 15.327L7.36959 17.08L6.45459 17.905L4.95959 16.151L4.96059 16.152Z" fill="#272727"/>
</g>
<defs>
<clipPath id="clip0_476_4305">
<rect width="32" height="24" fill="white"/>
</clipPath>
</defs>
</svg>
