<svg width="29" height="22" viewBox="0 0 29 22" fill="none" xmlns="http://www.w3.org/2000/svg">
<path d="M14.3706 0.633789C13.2589 0.633789 12.1928 1.18213 11.4068 2.15819C10.6207 3.13424 10.1792 4.45806 10.1792 5.83841C10.1792 7.21876 10.6207 8.54257 11.4068 9.51863C12.1928 10.4947 13.2589 11.043 14.3706 11.043C15.4822 11.043 16.5483 10.4947 17.3343 9.51863C18.1204 8.54257 18.562 7.21876 18.562 5.83841C18.562 4.45806 18.1204 3.13424 17.3343 2.15819C16.5483 1.18213 15.4822 0.633789 14.3706 0.633789ZM14.3706 3.60786C14.847 3.60786 15.3039 3.84286 15.6408 4.26117C15.9776 4.67948 16.1669 5.24683 16.1669 5.83841C16.1669 6.42999 15.9776 6.99734 15.6408 7.41564C15.3039 7.83395 14.847 8.06896 14.3706 8.06896C13.8942 8.06896 13.4373 7.83395 13.1004 7.41564C12.7635 6.99734 12.5742 6.42999 12.5742 5.83841C12.5742 5.24683 12.7635 4.67948 13.1004 4.26117C13.4373 3.84286 13.8942 3.60786 14.3706 3.60786ZM6.58651 5.09489C5.79249 5.09489 5.03098 5.48656 4.46952 6.18375C3.90807 6.88093 3.59264 7.82651 3.59264 8.81247C3.59264 10.2103 4.22734 11.4148 5.13748 12.0542C5.56859 12.3516 6.05959 12.5301 6.58651 12.5301C7.11343 12.5301 7.60442 12.3516 8.03554 12.0542C8.47863 11.7419 8.84987 11.2958 9.12531 10.7605C8.25288 9.34866 7.78127 7.61798 7.78406 5.83841V5.42204C7.42479 5.21385 7.01763 5.09489 6.58651 5.09489ZM22.1546 5.09489C21.7235 5.09489 21.3163 5.21385 20.9571 5.42204V5.83841C20.9571 7.62285 20.49 9.34781 19.6158 10.7605C19.7595 11.043 19.9152 11.2661 20.0948 11.4891C20.6471 12.154 21.3854 12.5271 22.1546 12.5301C22.6815 12.5301 23.1725 12.3516 23.6037 12.0542C24.5138 11.4148 25.1485 10.2103 25.1485 8.81247C25.1485 7.82651 24.8331 6.88093 24.2716 6.18375C23.7101 5.48656 22.9486 5.09489 22.1546 5.09489ZM14.3706 14.0171C11.5683 14.0171 5.98774 15.7569 5.98774 19.2217V21.4523H22.7534V19.2217C22.7534 15.7569 17.1728 14.0171 14.3706 14.0171ZM5.64045 14.835C3.32918 15.177 0 16.6343 0 19.2217V21.4523H3.59264V18.5823C3.59264 17.0804 4.41895 15.8313 5.64045 14.835ZM23.1007 14.835C24.3222 15.8313 25.1485 17.0804 25.1485 18.5823V21.4523H28.7411V19.2217C28.7411 16.6343 25.412 15.177 23.1007 14.835ZM14.3706 16.9912C16.2028 16.9912 18.2506 17.7347 19.4362 18.4782H9.30494C10.4905 17.7347 12.5383 16.9912 14.3706 16.9912Z" fill="white"/>
</svg>
