<svg width="15" height="18" viewBox="0 0 15 18" fill="none" xmlns="http://www.w3.org/2000/svg">
<path d="M9.48421 7.47L7.30952 9.59L5.12456 7.47L3.67818 8.88L5.86314 11L3.68844 13.12L5.13482 14.53L7.30952 12.41L9.48421 14.53L10.9306 13.12L8.7559 11L10.9306 8.88L9.48421 7.47ZM10.8998 1L9.87402 0H4.74501L3.71921 1H0.128906V3H14.4901V1H10.8998ZM1.15471 16C1.15471 17.1 2.07793 18 3.20631 18H11.4127C12.5411 18 13.4643 17.1 13.4643 16V4H1.15471V16ZM3.20631 6H11.4127V16H3.20631V6Z" fill="black"/>
</svg>
