<svg width="22" height="35" viewBox="0 0 22 35" fill="none" xmlns="http://www.w3.org/2000/svg">
<path d="M0.251375 6.592C0.251375 5.952 0.459375 5.376 0.875375 4.864C1.32338 4.352 1.96338 3.824 2.79538 3.28C5.25938 1.648 8.05938 0.831998 11.1954 0.831998C13.1154 0.831998 14.8594 1.232 16.4274 2.032C17.9954 2.832 19.2274 3.952 20.1234 5.392C21.0194 6.8 21.4674 8.4 21.4674 10.192C21.4674 11.888 21.0674 13.328 20.2674 14.512C19.4994 15.664 18.2674 16.832 16.5714 18.016C15.4834 18.784 14.6194 19.52 13.9794 20.224C13.3394 20.896 12.9234 21.712 12.7314 22.672C12.5714 23.536 12.2834 24.16 11.8674 24.544C11.4834 24.928 10.9394 25.12 10.2354 25.12C9.59538 25.12 9.05138 24.896 8.60338 24.448C8.18738 24 7.97938 23.392 7.97938 22.624C7.97938 21.92 8.09138 21.264 8.31538 20.656C8.53938 20.048 8.87538 19.408 9.32338 18.736C9.73938 18.096 10.2194 17.52 10.7634 17.008C11.3394 16.464 12.1234 15.776 13.1154 14.944C13.9474 14.304 14.3954 13.952 14.4594 13.888C15.7714 12.8 16.4274 11.568 16.4274 10.192C16.4274 8.72 15.9154 7.536 14.8914 6.64C13.8674 5.744 12.5234 5.296 10.8594 5.296C9.45138 5.296 8.29938 5.504 7.40338 5.92C6.53938 6.336 5.67538 6.912 4.81138 7.648C4.26738 8.064 3.81938 8.368 3.46738 8.56C3.14738 8.752 2.79538 8.848 2.41138 8.848C1.80338 8.848 1.29138 8.64 0.875375 8.224C0.459375 7.776 0.251375 7.232 0.251375 6.592ZM13.3074 31.456C13.3074 32.288 13.0194 33.008 12.4434 33.616C11.8674 34.192 11.1474 34.48 10.2834 34.48C9.45138 34.48 8.74738 34.192 8.17138 33.616C7.59538 33.008 7.30738 32.288 7.30738 31.456C7.30738 30.624 7.59538 29.92 8.17138 29.344C8.74738 28.736 9.45138 28.432 10.2834 28.432C11.1474 28.432 11.8674 28.736 12.4434 29.344C13.0194 29.92 13.3074 30.624 13.3074 31.456Z" fill="white"/>
</svg>
