<svg width="49" height="36" viewBox="0 0 49 36" fill="none" xmlns="http://www.w3.org/2000/svg">
<path d="M12.25 36C8.87197 36 5.98542 34.8132 3.59036 32.4396C1.1953 30.0659 -0.00148347 27.1648 1.37997e-06 23.7363C1.37997e-06 20.7975 0.87235 18.179 2.61705 15.8807C4.36174 13.5824 6.6447 12.113 9.46591 11.4725C10.3197 8.42072 11.907 5.85871 14.2278 3.7865C16.5486 1.71429 19.2303 0.452119 22.2727 0V18.2543L20.2682 16.2763C19.8598 15.8618 19.3491 15.6546 18.7358 15.6546C18.1226 15.6546 17.594 15.8807 17.15 16.3328C16.7417 16.7473 16.5375 17.2747 16.5375 17.9152C16.5375 18.5557 16.7417 19.0832 17.15 19.4976L22.9409 25.3752C23.3864 25.8273 23.9061 26.0534 24.5 26.0534C25.0939 26.0534 25.6136 25.8273 26.0591 25.3752L31.85 19.4976C32.2583 19.0832 32.4714 18.5648 32.4892 17.9424C32.507 17.3199 32.294 16.7834 31.85 16.3328C31.4417 15.9184 30.9309 15.7013 30.3176 15.6818C29.7044 15.6622 29.1758 15.8603 28.7318 16.2763L26.7273 18.2543V0C30.5508 0.527472 33.7343 2.27039 36.2778 5.22876C38.8214 8.18713 40.0924 11.6624 40.0909 15.6546C42.6523 15.956 44.7778 17.0773 46.4676 19.0184C48.1573 20.9595 49.0015 23.2291 49 25.8273C49 28.6531 48.0252 31.0553 46.0756 33.0341C44.126 35.0129 41.7599 36.0015 38.9773 36H12.25Z" fill="#007BFF"/>
</svg>
