<svg width="19" height="19" viewBox="0 0 19 19" fill="none" xmlns="http://www.w3.org/2000/svg">
<path d="M2.12973 17H3.56585L12.4134 8.375L10.9773 6.975L2.12973 15.6V17ZM16.7987 6.925L12.439 2.725L13.8752 1.325C14.2684 0.941667 14.7515 0.75 15.3246 0.75C15.897 0.75 16.3798 0.941667 16.773 1.325L18.2092 2.725C18.6024 3.10833 18.8075 3.571 18.8246 4.113C18.8417 4.65433 18.6537 5.11667 18.2605 5.5L16.7987 6.925ZM15.3113 8.4L4.43778 19H0.078125V14.75L10.9516 4.15L15.3113 8.4ZM11.6953 7.675L10.9773 6.975L12.4134 8.375L11.6953 7.675Z" fill="black"/>
</svg>
