<svg width="13" height="15" viewBox="0 0 13 15" fill="none" xmlns="http://www.w3.org/2000/svg">
<path d="M6.5 11.3333L7.49167 10.3416L6.37604 9.20825H9.33333V7.79158H6.37604L7.49167 6.65825L6.5 5.66658L3.66667 8.49992L6.5 11.3333ZM1.54167 14.8749C1.15208 14.8749 0.818458 14.7363 0.540792 14.4591C0.263597 14.1815 0.125 13.8478 0.125 13.4583V3.54159C0.125 3.152 0.263597 2.81838 0.540792 2.54071C0.818458 2.26352 1.15208 2.12492 1.54167 2.12492H4.51667C4.67014 1.69992 4.92703 1.35756 5.28733 1.09784C5.64717 0.838113 6.05139 0.708252 6.5 0.708252C6.94861 0.708252 7.35307 0.838113 7.71338 1.09784C8.07321 1.35756 8.32986 1.69992 8.48333 2.12492H11.4583C11.8479 2.12492 12.1815 2.26352 12.4592 2.54071C12.7364 2.81838 12.875 3.152 12.875 3.54159V13.4583C12.875 13.8478 12.7364 14.1815 12.4592 14.4591C12.1815 14.7363 11.8479 14.8749 11.4583 14.8749H1.54167ZM1.54167 13.4583H11.4583V3.54159H1.54167V13.4583ZM6.5 3.01034C6.65347 3.01034 6.7805 2.96004 6.88108 2.85946C6.98119 2.75935 7.03125 2.63256 7.03125 2.47909C7.03125 2.32561 6.98119 2.19859 6.88108 2.098C6.7805 1.99789 6.65347 1.94784 6.5 1.94784C6.34653 1.94784 6.21974 1.99789 6.11963 2.098C6.01904 2.19859 5.96875 2.32561 5.96875 2.47909C5.96875 2.63256 6.01904 2.75935 6.11963 2.85946C6.21974 2.96004 6.34653 3.01034 6.5 3.01034Z" fill="#43BA65"/>
</svg>
