<svg width="17" height="17" viewBox="0 0 17 17" fill="none" xmlns="http://www.w3.org/2000/svg">
<path d="M14.875 9.91667V13.4583C14.875 13.8341 14.7257 14.1944 14.4601 14.4601C14.1944 14.7257 13.8341 14.875 13.4583 14.875H3.54167C3.16594 14.875 2.80561 14.7257 2.53993 14.4601C2.27426 14.1944 2.125 13.8341 2.125 13.4583V3.54167C2.125 3.16594 2.27426 2.80561 2.53993 2.53993C2.80561 2.27426 3.16594 2.125 3.54167 2.125H7.08333V3.54167H3.54167V13.4583H13.4583V9.91667H14.875Z" fill="#AD1519"/>
<path d="M14.8743 4.95833H12.041V2.125H10.6243V4.95833H7.79102V6.375H10.6243V9.20833H12.041V6.375H14.8743V4.95833Z" fill="#AD1519"/>
</svg>
