<svg width="26" height="30" viewBox="0 0 26 30" fill="none" xmlns="http://www.w3.org/2000/svg">
<path d="M18.7083 13.6386C20.4689 13.6386 22.1574 14.4614 23.4024 15.9259C24.6473 17.3905 25.3467 19.3769 25.3467 21.4481C25.3467 23.5193 24.6473 25.5057 23.4024 26.9702C22.1574 28.4348 20.4689 29.2576 18.7083 29.2576C16.9477 29.2576 15.2592 28.4348 14.0142 26.9702C12.7693 25.5057 12.0699 23.5193 12.0699 21.4481C12.0699 19.3769 12.7693 17.3905 14.0142 15.9259C15.2592 14.4614 16.9477 13.6386 18.7083 13.6386ZM18.7083 16.4784L18.5997 16.4883C18.4791 16.5142 18.3681 16.5827 18.2814 16.6847C18.1947 16.7867 18.1365 16.9173 18.1144 17.0591L18.1048 17.1883V20.7381H15.0849L14.9763 20.7495C14.8557 20.7754 14.7447 20.8439 14.658 20.9459C14.5713 21.0478 14.5131 21.1784 14.4911 21.3203L14.4814 21.4481L14.4911 21.5759C14.5131 21.7177 14.5713 21.8483 14.658 21.9503C14.7447 22.0523 14.8557 22.1208 14.9763 22.1467L15.0849 22.158H18.1048V25.7121L18.1144 25.8399C18.1365 25.9817 18.1947 26.1123 18.2814 26.2143C18.3681 26.3163 18.4791 26.3848 18.5997 26.4107L18.7083 26.422L18.8169 26.4107C18.9375 26.3848 19.0485 26.3163 19.1352 26.2143C19.2219 26.1123 19.2801 25.9817 19.3021 25.8399L19.3118 25.7121V22.158L22.3341 22.1595L22.4427 22.1481C22.5633 22.1222 22.6743 22.0537 22.761 21.9517C22.8476 21.8497 22.9059 21.7191 22.9279 21.5773L22.9376 21.4495L22.9279 21.3217C22.9058 21.1797 22.8474 21.0489 22.7605 20.9469C22.6736 20.8449 22.5623 20.7766 22.4415 20.7509L22.3329 20.7395H19.3118V17.1898L19.3021 17.062C19.2803 16.9199 19.2222 16.7889 19.1355 16.6867C19.0488 16.5845 18.9377 16.5158 18.8169 16.4898L18.7083 16.4784ZM14.7904 10.7987C15.7982 10.7987 16.6769 11.4434 17.1452 12.4032C16.5113 12.5536 15.8958 12.7964 15.313 13.126C15.1609 12.9969 14.978 12.9279 14.7904 12.9286H9.35655C9.11647 12.9286 8.88622 13.0408 8.71645 13.2405C8.54669 13.4402 8.45132 13.7111 8.45132 13.9935V20.0267C8.45132 22.0288 9.62692 23.71 11.2105 24.1658C11.4174 24.961 11.7159 25.7192 12.0976 26.4192L12.0735 26.4178C10.6327 26.4178 9.25084 25.7444 8.23202 24.5459C7.2132 23.3473 6.64084 21.7218 6.64084 20.0267V13.9935C6.64084 13.1462 6.92696 12.3336 7.43625 11.7345C7.94555 11.1353 8.6363 10.7987 9.35655 10.7987H14.7904ZM6.52497 10.7987C6.04039 11.3923 5.69987 12.1278 5.53886 12.9286H2.71572C2.47563 12.9286 2.24538 13.0408 2.07562 13.2405C1.90585 13.4402 1.81048 13.7111 1.81048 13.9935V17.8969C1.8104 18.4334 1.91368 18.963 2.11255 19.4459C2.31143 19.9288 2.60073 20.3524 2.95872 20.6848C3.31672 21.0173 3.7341 21.25 4.17951 21.3655C4.62492 21.4809 5.08679 21.4762 5.53041 21.3515C5.633 22.0672 5.82009 22.7501 6.07717 23.3848C5.36177 23.61 4.61193 23.6386 3.88564 23.4683C3.15935 23.2981 2.47607 22.9337 1.88863 22.4032C1.30119 21.8727 0.825324 21.1904 0.497837 20.409C0.170351 19.6276 1.48662e-05 18.7681 2.05172e-08 17.8969V13.9935C-8.45154e-05 13.184 0.261066 12.4046 0.730672 11.8129C1.20028 11.2212 1.84332 10.8613 2.52984 10.8058L2.71572 10.7987H6.52497ZM21.424 10.7987C22.1443 10.7987 22.835 11.1353 23.3443 11.7345C23.8536 12.3336 24.1397 13.1462 24.1397 13.9935V14.7887C22.6805 13.1369 20.7334 12.2156 18.7083 12.2187L18.4126 12.2258C18.2276 11.6959 17.9594 11.2118 17.622 10.7987H21.424ZM19.9153 2.27929C20.7155 2.27929 21.4831 2.65328 22.0489 3.31899C22.6148 3.9847 22.9327 4.8876 22.9327 5.82906C22.9327 6.77052 22.6148 7.67342 22.0489 8.33913C21.4831 9.00485 20.7155 9.37884 19.9153 9.37884C19.115 9.37884 18.3475 9.00485 17.7816 8.33913C17.2157 7.67342 16.8978 6.77052 16.8978 5.82906C16.8978 4.8876 17.2157 3.9847 17.7816 3.31899C18.3475 2.65328 19.115 2.27929 19.9153 2.27929ZM12.0699 0.859375C13.0302 0.859375 13.9512 1.30817 14.6303 2.10702C15.3093 2.90588 15.6908 3.98936 15.6908 5.11911C15.6908 6.24886 15.3093 7.33234 14.6303 8.13119C13.9512 8.93005 13.0302 9.37884 12.0699 9.37884C11.1095 9.37884 10.1885 8.93005 9.50946 8.13119C8.83039 7.33234 8.4489 6.24886 8.4489 5.11911C8.4489 3.98936 8.83039 2.90588 9.50946 2.10702C10.1885 1.30817 11.1095 0.859375 12.0699 0.859375ZM4.22445 2.27929C5.02473 2.27929 5.79224 2.65328 6.35812 3.31899C6.92401 3.9847 7.24192 4.8876 7.24192 5.82906C7.24192 6.77052 6.92401 7.67342 6.35812 8.33913C5.79224 9.00485 5.02473 9.37884 4.22445 9.37884C3.42417 9.37884 2.65667 9.00485 2.09078 8.33913C1.5249 7.67342 1.20699 6.77052 1.20699 5.82906C1.20699 4.8876 1.5249 3.9847 2.09078 3.31899C2.65667 2.65328 3.42417 2.27929 4.22445 2.27929ZM19.9153 4.40915C19.5952 4.40915 19.2882 4.55875 19.0618 4.82503C18.8354 5.09132 18.7083 5.45248 18.7083 5.82906C18.7083 6.20565 18.8354 6.56681 19.0618 6.83309C19.2882 7.09938 19.5952 7.24897 19.9153 7.24897C20.2354 7.24897 20.5424 7.09938 20.7687 6.83309C20.9951 6.56681 21.1223 6.20565 21.1223 5.82906C21.1223 5.45248 20.9951 5.09132 20.7687 4.82503C20.5424 4.55875 20.2354 4.40915 19.9153 4.40915ZM12.0699 2.98924C11.5897 2.98924 11.1292 3.21364 10.7897 3.61306C10.4501 4.01249 10.2594 4.55423 10.2594 5.11911C10.2594 5.68398 10.4501 6.22572 10.7897 6.62515C11.1292 7.02458 11.5897 7.24897 12.0699 7.24897C12.55 7.24897 13.0105 7.02458 13.3501 6.62515C13.6896 6.22572 13.8803 5.68398 13.8803 5.11911C13.8803 4.55423 13.6896 4.01249 13.3501 3.61306C13.0105 3.21364 12.55 2.98924 12.0699 2.98924ZM4.22445 4.40915C3.90434 4.40915 3.59734 4.55875 3.37098 4.82503C3.14463 5.09132 3.01747 5.45248 3.01747 5.82906C3.01747 6.20565 3.14463 6.56681 3.37098 6.83309C3.59734 7.09938 3.90434 7.24897 4.22445 7.24897C4.54456 7.24897 4.85156 7.09938 5.07792 6.83309C5.30427 6.56681 5.43144 6.20565 5.43144 5.82906C5.43144 5.45248 5.30427 5.09132 5.07792 4.82503C4.85156 4.55875 4.54456 4.40915 4.22445 4.40915Z" fill="white"/>
</svg>
