<svg width="19" height="18" viewBox="0 0 19 18" fill="none" xmlns="http://www.w3.org/2000/svg">
<path d="M9.31034 15C9.66937 15 9.97266 14.879 10.2202 14.637C10.4685 14.3957 10.5926 14.1 10.5926 13.75C10.5926 13.4 10.4685 13.1043 10.2202 12.863C9.97266 12.621 9.66937 12.5 9.31034 12.5C8.95131 12.5 8.64801 12.621 8.40045 12.863C8.15221 13.1043 8.02809 13.4 8.02809 13.75C8.02809 14.1 8.15221 14.3957 8.40045 14.637C8.64801 14.879 8.95131 15 9.31034 15ZM8.38712 11.15H10.2848C10.2848 10.55 10.3532 10.1083 10.49 9.825C10.6268 9.54167 10.9174 9.18333 11.3619 8.75C11.9603 8.16667 12.3836 7.679 12.6319 7.287C12.8794 6.89567 13.0032 6.45 13.0032 5.95C13.0032 5.06667 12.6955 4.354 12.08 3.812C11.4645 3.27067 10.6353 3 9.59243 3C8.65211 3 7.85302 3.225 7.19514 3.675C6.53657 4.125 6.07906 4.75 5.82261 5.55L7.51519 6.2C7.63486 5.75 7.87422 5.38733 8.23325 5.112C8.59228 4.83733 9.01115 4.7 9.48985 4.7C9.95146 4.7 10.3361 4.82067 10.6439 5.062C10.9516 5.304 11.1055 5.625 11.1055 6.025C11.1055 6.30833 11.0115 6.60833 10.8234 6.925C10.6353 7.24167 10.319 7.59167 9.87453 7.975C9.31034 8.45833 8.92156 8.92067 8.70819 9.362C8.49414 9.804 8.38712 10.4 8.38712 11.15ZM2.12973 18C1.56554 18 1.08238 17.8043 0.68027 17.413C0.27884 17.021 0.078125 16.55 0.078125 16V2C0.078125 1.45 0.27884 0.979 0.68027 0.587C1.08238 0.195667 1.56554 0 2.12973 0H16.4909C17.0551 0 17.5383 0.195667 17.9404 0.587C18.3418 0.979 18.5426 1.45 18.5426 2V16C18.5426 16.55 18.3418 17.021 17.9404 17.413C17.5383 17.8043 17.0551 18 16.4909 18H2.12973ZM2.12973 16H16.4909V2H2.12973V16Z" fill="black"/>
</svg>
