<svg width="68" height="84" viewBox="0 0 68 84" fill="none" xmlns="http://www.w3.org/2000/svg">
<path d="M34.0013 45.9681C32.7328 45.9533 31.4901 46.3274 30.4406 47.0402C29.3912 47.753 28.5852 48.7701 28.1314 49.9548C27.6775 51.1394 27.5974 52.4347 27.9019 53.6663C28.2064 54.8978 28.8809 56.0065 29.8346 56.8431V62.6348C29.8346 63.7398 30.2736 64.7996 31.055 65.581C31.8364 66.3624 32.8962 66.8014 34.0013 66.8014C35.1064 66.8014 36.1662 66.3624 36.9476 65.581C37.729 64.7996 38.168 63.7398 38.168 62.6348V56.8431C39.1217 56.0065 39.7962 54.8978 40.1007 53.6663C40.4052 52.4347 40.3251 51.1394 39.8712 49.9548C39.4174 48.7701 38.6114 47.753 37.562 47.0402C36.5125 46.3274 35.2698 45.9533 34.0013 45.9681ZM54.8346 29.3014V20.9681C54.8346 15.4428 52.6397 10.1437 48.7327 6.23671C44.8257 2.3297 39.5266 0.134766 34.0013 0.134766C28.476 0.134766 23.1769 2.3297 19.2699 6.23671C15.3629 10.1437 13.168 15.4428 13.168 20.9681V29.3014C9.85276 29.3014 6.67334 30.6184 4.32913 32.9626C1.98493 35.3068 0.667969 38.4862 0.667969 41.8014V70.9681C0.667969 74.2833 1.98493 77.4627 4.32913 79.8069C6.67334 82.1511 9.85276 83.4681 13.168 83.4681H54.8346C58.1498 83.4681 61.3293 82.1511 63.6735 79.8069C66.0177 77.4627 67.3346 74.2833 67.3346 70.9681V41.8014C67.3346 38.4862 66.0177 35.3068 63.6735 32.9626C61.3293 30.6184 58.1498 29.3014 54.8346 29.3014ZM21.5013 20.9681C21.5013 17.6529 22.8183 14.4735 25.1625 12.1293C27.5067 9.78506 30.6861 8.4681 34.0013 8.4681C37.3165 8.4681 40.4959 9.78506 42.8401 12.1293C45.1843 14.4735 46.5013 17.6529 46.5013 20.9681V29.3014H21.5013V20.9681ZM59.0013 70.9681C59.0013 72.0732 58.5623 73.133 57.7809 73.9144C56.9995 74.6958 55.9397 75.1348 54.8346 75.1348H13.168C12.0629 75.1348 11.0031 74.6958 10.2217 73.9144C9.44029 73.133 9.0013 72.0732 9.0013 70.9681V41.8014C9.0013 40.6964 9.44029 39.6366 10.2217 38.8552C11.0031 38.0738 12.0629 37.6348 13.168 37.6348H54.8346C55.9397 37.6348 56.9995 38.0738 57.7809 38.8552C58.5623 39.6366 59.0013 40.6964 59.0013 41.8014V70.9681Z" fill="#3999FF"/>
</svg>
