<svg width="214" height="63" viewBox="0 0 214 63" fill="none" xmlns="http://www.w3.org/2000/svg">
<g filter="url(#filter0_d_1295_34534)">
<path d="M109.632 24.087H114.024V16.2511H117.14V13.084H106.516V16.2511H109.632V24.087Z" fill="white"/>
<path d="M120.379 24.087L122.618 17.507L124.854 24.087H129.15L124.939 13.084H120.294L116.086 24.087H120.379Z" fill="white"/>
<path d="M131.21 24.087H135.602V16.2511H138.718V13.084H128.094V16.2511H131.21V24.087Z" fill="white"/>
<path d="M141.957 24.087L144.196 17.507L146.432 24.087H150.728L146.52 13.084H141.872L137.664 24.087H141.957Z" fill="white"/>
<path d="M184.111 31.9535C184.653 33.1992 185.37 34.5472 186.083 35.7486L188.957 40.588H191.039V29.585H189.179V33.4244C189.179 35.1069 189.216 36.5233 189.36 37.984L189.322 37.9942C188.813 36.7997 188.175 35.5199 187.448 34.3083L184.605 29.585H182.309V40.588H184.165V36.653C184.165 34.8476 184.138 33.3937 184.059 31.9637L184.111 31.9535Z" fill="white"/>
<path d="M174.135 37.4789H177.629L178.626 40.588H180.783L177.21 29.585H174.653L171.121 40.588H173.2L174.135 37.4789ZM175.312 33.2435C175.507 32.5883 175.674 31.8272 175.834 31.1822H175.868C176.036 31.8204 176.216 32.5712 176.425 33.2504L177.292 35.9636H174.455L175.312 33.2435Z" fill="white"/>
<path d="M141.379 39.0968C140.355 39.0968 139.369 38.7692 138.721 38.3938L138.273 40.0592C138.874 40.4278 140.082 40.7623 141.246 40.7623C144.086 40.7623 145.42 39.2265 145.42 37.4552C145.42 35.8751 144.502 34.9127 142.591 34.1857C141.123 33.626 140.485 33.2267 140.485 32.3837C140.485 31.7353 141.028 31.0595 142.304 31.0595C143.338 31.0595 144.106 31.3735 144.502 31.5817L144.983 29.9606C144.41 29.6705 143.536 29.418 142.345 29.418C139.959 29.418 138.451 30.7763 138.451 32.5783C138.451 34.155 139.611 35.1311 141.43 35.7761C142.819 36.2812 143.379 36.7727 143.379 37.602C143.379 38.4961 142.659 39.0968 141.379 39.0968Z" fill="white"/>
<path d="M112.492 31.0727C113.389 31.0727 114.123 31.2707 114.635 31.5027L115.072 29.9021C114.662 29.6803 113.73 29.4141 112.406 29.4141C109.045 29.4141 106.516 31.5983 106.516 35.2159C106.516 38.5639 108.642 40.7618 112.133 40.7618C113.464 40.7618 114.512 40.499 114.986 40.2601L114.655 38.6765C114.126 38.9154 113.276 39.0758 112.461 39.0758C110.041 39.0758 108.632 37.5401 108.632 35.1135C108.632 32.472 110.246 31.0727 112.492 31.0727Z" fill="white"/>
<path d="M168.669 40.588V31.2743H171.84V29.585H163.516V31.2743H166.659V40.588H168.669Z" fill="white"/>
<path d="M208.841 29.585L207.517 32.404C207.142 33.2026 206.838 33.8851 206.565 34.5882H206.531C206.23 33.8442 205.944 33.2162 205.572 32.4074L204.261 29.585H201.961L205.442 36.0079V40.588H207.452V35.9533L211.107 29.5884H208.841V29.585Z" fill="white"/>
<path d="M120.899 29.4072C117.793 29.4072 115.66 31.7928 115.66 35.1715C115.66 38.3933 117.626 40.772 120.738 40.772H120.756C123.769 40.772 126.004 38.6629 126.004 34.977C125.998 31.8303 124.107 29.4072 120.899 29.4072ZM120.82 39.1611H120.803C118.882 39.1611 117.759 37.3114 117.766 35.1237C117.762 32.9293 118.82 31.0147 120.827 31.0147C122.834 31.0147 123.865 32.9771 123.865 35.0521C123.861 37.3523 122.762 39.1611 120.82 39.1611Z" fill="white"/>
<path d="M198.745 31.0727C199.643 31.0727 200.377 31.2707 200.889 31.5027L201.326 29.9021C200.916 29.6803 199.984 29.4141 198.66 29.4141C195.298 29.4141 192.77 31.5983 192.77 35.2159C192.77 38.5639 194.896 40.7618 198.387 40.7618C199.718 40.7618 200.766 40.5024 201.24 40.2601L200.909 38.6765C200.38 38.9154 199.53 39.0758 198.715 39.0758C196.295 39.0758 194.886 37.5401 194.886 35.1135C194.886 32.472 196.5 31.0727 198.745 31.0727Z" fill="white"/>
<path d="M160.108 29.585H158.098V40.588H164.633V38.902H160.108V29.585Z" fill="white"/>
<path d="M155.808 35.8719V29.5889H153.798V36.005C153.798 38.1619 152.928 39.1551 151.481 39.1551C150.119 39.1551 149.225 38.1551 149.225 36.005V29.5889H147.215V35.8856C147.215 39.3462 148.87 40.7762 151.406 40.7762C154.064 40.7728 155.808 39.2609 155.808 35.8719Z" fill="white"/>
<path d="M136.449 29.585H134.589V33.4244C134.589 35.1069 134.626 36.5233 134.77 37.984L134.732 37.9942C134.224 36.7997 133.585 35.5199 132.858 34.3083L130.016 29.585H127.719V40.588H129.579V36.653C129.579 34.8476 129.551 33.3937 129.473 31.9671L129.524 31.9569C130.067 33.2026 130.783 34.5507 131.497 35.752L134.37 40.5914H136.452V29.585H136.449Z" fill="white"/>
<path d="M145.049 46.0898H143.039V57.0929H145.049V46.0898Z" fill="white"/>
<path d="M129.219 51.9326V51.8883C130.246 51.5231 131.202 50.5675 131.202 49.1614C131.202 48.2263 130.861 47.4686 130.263 46.9704C129.526 46.356 128.257 46.0898 126.895 46.0898C125.533 46.0898 124.632 46.1854 123.871 46.3253V57.0929H125.851V52.605H126.854C127.987 52.6323 128.506 53.093 128.82 54.5162C129.123 55.8745 129.386 56.7755 129.553 57.0929H131.601C131.383 56.6663 131.086 55.4137 130.741 54.0486C130.468 52.9872 130.011 52.233 129.219 51.9326ZM127.031 51.1409H125.851V47.6905C126.052 47.6393 126.458 47.5915 127.089 47.5915C128.379 47.5949 129.216 48.1512 129.216 49.3423C129.216 50.4276 128.383 51.1409 127.031 51.1409Z" fill="white"/>
<path d="M138.112 51.1199C137.686 52.4543 137.286 53.799 136.993 55.0959H136.959C136.672 53.7648 136.297 52.4782 135.88 51.0892L134.379 46.0859H132.188L135.747 57.089H138.051L141.853 46.0859H139.713L138.112 51.1199Z" fill="white"/>
<path d="M158.955 52.2091H163.102V50.5709H158.955V47.7417H163.348V46.0898H156.945V57.0895H163.59V55.4376H158.955V52.2091Z" fill="white"/>
<path d="M152.753 47.5747C153.651 47.5747 154.385 47.7726 154.897 48.0047L155.333 46.4041C154.924 46.1822 153.992 45.916 152.668 45.916C149.306 45.916 146.777 48.1002 146.777 51.7179C146.777 55.0659 148.904 57.2637 152.395 57.2637C153.726 57.2637 154.774 57.0044 155.248 56.762L154.917 55.1785C154.385 55.4174 153.538 55.5778 152.723 55.5778C150.303 55.5778 148.893 54.042 148.893 51.6155C148.893 48.9739 150.508 47.5747 152.753 47.5747Z" fill="white"/>
<path d="M110.832 50.6867C109.361 50.127 108.727 49.7277 108.727 48.8847C108.727 48.2363 109.269 47.5605 110.542 47.5605C111.576 47.5605 112.344 47.8745 112.74 48.0827L113.221 46.4616C112.648 46.1715 111.774 45.9189 110.583 45.9189C108.198 45.9189 106.689 47.2773 106.689 49.0792C106.689 50.656 107.85 51.6321 109.669 52.2771C111.058 52.7822 111.617 53.2736 111.617 54.103C111.617 55.0039 110.901 55.6046 109.617 55.6046C108.594 55.6046 107.607 55.277 106.959 54.9016L106.512 56.567C107.112 56.9356 108.321 57.2701 109.484 57.2701C112.324 57.2701 113.658 55.7343 113.658 53.963C113.662 52.3761 112.744 51.4136 110.832 50.6867Z" fill="white"/>
<path d="M117.475 52.2091H121.622V50.5709H117.475V47.7417H121.871V46.0898H115.465V57.0895H122.113V55.4376H117.475V52.2091Z" fill="white"/>
<path d="M169.188 50.6867C167.72 50.127 167.082 49.7277 167.082 48.8847C167.082 48.2363 167.625 47.5605 168.898 47.5605C169.932 47.5605 170.7 47.8745 171.096 48.0827L171.577 46.4616C171.003 46.1715 170.13 45.9189 168.939 45.9189C166.553 45.9189 165.045 47.2773 165.045 49.0792C165.045 50.656 166.205 51.6321 168.024 52.2771C169.413 52.7822 169.973 53.2736 169.973 54.103C169.973 55.0039 169.256 55.6046 167.973 55.6046C166.949 55.6046 165.963 55.277 165.314 54.9016L164.867 56.567C165.468 56.9356 166.676 57.2701 167.84 57.2701C170.679 57.2701 172.014 55.7343 172.014 53.963C172.017 52.3761 171.099 51.4136 169.188 50.6867Z" fill="white"/>
<path d="M2.89453 20.6092C2.89453 15.6265 6.13332 12.6368 10.8669 12.6368V4.16613C10.8669 1.67475 9.20488 0.0126953 6.88074 0.0126953C4.55659 0.0126953 2.89453 1.67475 2.89453 4.16613V20.6092Z" fill="url(#paint0_linear_1295_34534)"/>
<path d="M17.0135 57.239C19.0066 57.239 20.8325 56.9079 22.4945 56.3243C14.1057 57.7373 10.8669 52.0071 10.8669 45.5295V18.9571H20.5833C22.8256 18.9571 24.3204 17.6295 24.3204 15.7183C24.3204 13.8071 22.8256 12.4795 20.5833 12.4795H10.8669C6.13332 12.4795 2.89453 15.4691 2.89453 20.4519V43.2873C2.89453 52.4234 8.12643 57.239 17.0135 57.239Z" fill="url(#paint1_linear_1295_34534)"/>
<path d="M22.4948 56.482C25.8155 55.2363 28.3922 52.9122 30.0508 49.5061L26.3137 42.7794C24.6517 47.7622 21.7473 50.4208 17.7611 50.4208C13.6077 50.4208 10.8672 48.0113 10.8672 42.5303V45.6872C10.8672 52.1647 14.106 57.8949 22.4948 56.482Z" fill="white"/>
<path d="M56.624 55.1537C37.6895 57.9761 31.7102 47.8468 31.7102 34.8097C31.7102 25.3425 37.5223 18.8649 45.9111 18.8649C48.9826 18.8649 51.5593 19.5304 53.8835 20.6089C54.9619 21.1072 55.8766 21.2744 56.7059 21.2744C58.699 21.2744 60.0266 19.9468 60.0266 17.9537C60.0266 16.708 59.2792 15.4623 57.5352 14.633C54.3783 13.0562 50.3102 12.1416 45.9076 12.1416C32.7852 12.1416 23.7344 21.4416 23.7344 34.977C23.7344 48.2632 32.4542 57.4813 46.4878 57.4813C50.3136 57.4779 53.6343 56.7304 56.624 55.1537Z" fill="url(#paint2_linear_1295_34534)"/>
<path d="M56.624 55.1537C37.6895 57.9761 31.7102 47.8468 31.7102 34.8097C31.7102 25.3425 37.5223 18.8649 45.9111 18.8649C48.9826 18.8649 51.5593 19.5304 53.8835 20.6089C54.9619 21.1072 55.8766 21.2744 56.7059 21.2744C58.699 21.2744 60.0266 19.9468 60.0266 17.9537C60.0266 16.708 59.2792 15.4623 57.5352 14.633C54.3783 13.0562 50.3102 12.1416 45.9076 12.1416C32.7852 12.1416 23.7344 21.4416 23.7344 34.977C23.7344 48.2632 32.4542 57.4813 46.4878 57.4813C50.3136 57.4779 53.6343 56.7304 56.624 55.1537Z" fill="white"/>
<path d="M23.7383 34.974C23.7383 21.4387 32.7892 12.1387 45.9115 12.1387C50.3141 12.1387 54.3822 13.0533 57.5391 14.6301C59.2831 15.4594 60.0305 16.7051 60.0305 17.9508C60.0305 19.9439 58.7029 21.2715 56.7098 21.2715C55.8805 21.2715 54.9658 21.1042 53.8874 20.6059C51.0649 19.2783 48.3244 18.862 45.915 18.862C34.3659 18.8654 23.7383 26.1723 23.7383 34.974Z" fill="url(#paint3_linear_1295_34534)"/>
<path d="M23.7383 34.974C23.7383 21.4387 32.7892 12.1387 45.9115 12.1387C50.3141 12.1387 54.3822 13.0533 57.5391 14.6301C59.2831 15.4594 60.0305 16.7051 60.0305 17.9508C60.0305 19.9439 58.7029 21.2715 56.7098 21.2715C55.8805 21.2715 54.9658 21.1042 53.8874 20.6059C51.0649 19.2783 48.3244 18.862 45.915 18.862C34.3659 18.8654 23.7383 26.1723 23.7383 34.974Z" fill="white"/>
<path d="M73.314 14.7969C72.5665 15.5443 72.1502 16.4589 72.1502 17.5374C72.1502 20.2779 74.7235 24.346 80.7028 28.4995L87.5114 33.2331C92.4942 36.721 94.4873 40.0417 94.4873 45.0245C94.4873 48.5943 93.0743 51.6693 90.7502 53.8262C91.5795 53.0788 92.0778 52.0822 92.0778 50.7546C92.0778 47.8469 89.17 43.2805 82.9416 38.9632L76.7132 34.646C71.4813 30.9908 69.4062 27.5882 69.4062 22.9365C69.4062 20.196 70.4028 17.7046 72.0649 15.8787C72.4846 15.459 72.8976 15.1279 73.314 14.7969Z" fill="white"/>
<path d="M67.918 52.0828C67.918 53.4104 68.5835 54.4923 70.3274 55.3216C72.7369 56.4854 76.6378 57.482 80.1257 57.482C84.5283 57.482 88.18 56.1544 90.7567 53.8268C91.5861 53.0794 92.0843 52.0828 92.0843 50.7552C92.0843 47.8475 89.1766 43.2811 82.9481 38.9639C85.7706 40.957 86.9343 42.619 86.9343 45.0251C86.9343 48.5949 84.1119 51.0044 80.0404 51.0044C76.1361 51.0044 72.8154 49.0113 70.9895 49.0113C69.1637 49.0113 67.918 50.257 67.918 52.0828Z" fill="white"/>
<path d="M80.7083 28.4994C78.0497 26.5882 76.8894 24.8442 76.8894 22.7692C76.8894 20.1106 79.0497 18.452 82.1213 18.452C86.0256 18.452 87.8514 20.2778 90.1756 20.2778C92.0015 20.2778 93.2472 19.0321 93.2472 17.2063C93.2472 15.8787 92.5816 14.7968 90.8377 13.9675C88.0972 12.6399 85.1075 12.1416 81.8687 12.1416C78.4627 12.1416 75.473 13.1382 73.3161 14.8002C72.5687 15.5476 72.1523 16.4623 72.1523 17.5407C72.1523 20.2778 74.729 24.3459 80.7083 28.4994Z" fill="url(#paint4_linear_1295_34534)"/>
<path d="M80.7083 28.4994C78.0497 26.5882 76.8894 24.8442 76.8894 22.7692C76.8894 20.1106 79.0497 18.452 82.1213 18.452C86.0256 18.452 87.8514 20.2778 90.1756 20.2778C92.0015 20.2778 93.2472 19.0321 93.2472 17.2063C93.2472 15.8787 92.5816 14.7968 90.8377 13.9675C88.0972 12.6399 85.1075 12.1416 81.8687 12.1416C78.4627 12.1416 75.473 13.1382 73.3161 14.8002C72.5687 15.5476 72.1523 16.4623 72.1523 17.5407C72.1523 20.2778 74.729 24.3459 80.7083 28.4994Z" fill="white"/>
<path d="M31.7109 34.8104C31.7109 47.8475 37.6902 57.9803 56.6247 55.1544C62.6859 51.9975 67.0066 45.6053 69.9928 35.807L71.7368 30.0768C70.0747 27.9165 69.4127 25.5104 69.4127 22.9337C69.4127 20.1932 70.4092 17.7018 72.0713 15.876C69.5799 18.5346 67.5049 22.4355 65.8428 27.9165L63.9316 34.2269C60.5256 45.3561 55.1299 50.6699 46.7411 50.6699C37.523 50.6699 31.7109 44.2777 31.7109 34.8104Z" fill="white"/>
</g>
<defs>
<filter id="filter0_d_1295_34534" x="0.466415" y="0.0126953" width="213.067" height="62.326" filterUnits="userSpaceOnUse" color-interpolation-filters="sRGB">
<feFlood flood-opacity="0" result="BackgroundImageFix"/>
<feColorMatrix in="SourceAlpha" type="matrix" values="0 0 0 0 0 0 0 0 0 0 0 0 0 0 0 0 0 0 127 0" result="hardAlpha"/>
<feOffset dy="2.42812"/>
<feGaussianBlur stdDeviation="1.21406"/>
<feComposite in2="hardAlpha" operator="out"/>
<feColorMatrix type="matrix" values="0 0 0 0 0 0 0 0 0 0 0 0 0 0 0 0 0 0 0.25 0"/>
<feBlend mode="normal" in2="BackgroundImageFix" result="effect1_dropShadow_1295_34534"/>
<feBlend mode="normal" in="SourceGraphic" in2="effect1_dropShadow_1295_34534" result="shape"/>
</filter>
<linearGradient id="paint0_linear_1295_34534" x1="6.88179" y1="2.20606" x2="6.88179" y2="18.6484" gradientUnits="userSpaceOnUse">
<stop stop-color="white"/>
</linearGradient>
<linearGradient id="paint1_linear_1295_34534" x1="15.9197" y1="14.6836" x2="11.6199" y2="45.7938" gradientUnits="userSpaceOnUse">
<stop stop-color="white"/>
</linearGradient>
<linearGradient id="paint2_linear_1295_34534" x1="40.5513" y1="23.4728" x2="48.7767" y2="52.478" gradientUnits="userSpaceOnUse">
<stop stop-color="#FF0000"/>
<stop offset="0.9994" stop-color="#EE3984"/>
<stop offset="1" stop-color="#EE3984"/>
</linearGradient>
<linearGradient id="paint3_linear_1295_34534" x1="23.7375" y1="23.5572" x2="60.027" y2="23.5572" gradientUnits="userSpaceOnUse">
<stop stop-color="#FFC708"/>
<stop offset="1" stop-color="#FA3B00"/>
</linearGradient>
<linearGradient id="paint4_linear_1295_34534" x1="72.154" y1="20.3181" x2="93.2468" y2="20.3181" gradientUnits="userSpaceOnUse">
<stop stop-color="#FFC708"/>
<stop offset="1" stop-color="#F05731"/>
</linearGradient>
</defs>
</svg>
