<svg width="20" height="23" viewBox="0 0 20 23" fill="none" xmlns="http://www.w3.org/2000/svg">
<path d="M13.5976 16.308C13.3977 16.0432 13.2978 15.7425 13.2978 15.406C13.2978 15.0703 13.3977 14.7904 13.5976 14.5663L15.6146 12.3052H7.79196C7.48306 12.3052 7.2243 12.1879 7.0157 11.9532C6.80637 11.7194 6.70171 11.4293 6.70171 11.083C6.70171 10.7367 6.80637 10.4462 7.0157 10.2116C7.2243 9.97771 7.48306 9.86079 7.79196 9.86079H15.6146L13.5976 7.59967C13.3795 7.35523 13.2705 7.06516 13.2705 6.72945C13.2705 6.39293 13.3795 6.10245 13.5976 5.85801C13.7975 5.61356 14.0475 5.49134 14.3477 5.49134C14.6471 5.49134 14.8968 5.60338 15.0967 5.82745L19.0216 10.2275C19.1306 10.3497 19.2081 10.4821 19.2538 10.6247C19.2989 10.7673 19.3214 10.92 19.3214 11.083C19.3214 11.246 19.2989 11.3987 19.2538 11.5413C19.2081 11.6839 19.1306 11.8163 19.0216 11.9386L15.0967 16.3386C14.8605 16.6034 14.6017 16.7203 14.3204 16.6893C14.0384 16.6592 13.7975 16.5321 13.5976 16.308ZM2.34067 22.083C1.74103 22.083 1.22752 21.8439 0.800138 21.3656C0.373483 20.8865 0.160156 20.3108 0.160156 19.6386V2.52745C0.160156 1.85523 0.373483 1.27956 0.800138 0.800452C1.22752 0.322156 1.74103 0.0830078 2.34067 0.0830078H8.88222C9.19113 0.0830078 9.45025 0.199934 9.65958 0.433786C9.86818 0.668452 9.97248 0.958934 9.97248 1.30523C9.97248 1.65153 9.86818 1.9416 9.65958 2.17545C9.45025 2.41012 9.19113 2.52745 8.88222 2.52745H2.34067V19.6386H8.88222C9.19113 19.6386 9.45025 19.7559 9.65958 19.9906C9.86818 20.2244 9.97248 20.5145 9.97248 20.8608C9.97248 21.2071 9.86818 21.4972 9.65958 21.731C9.45025 21.9657 9.19113 22.083 8.88222 22.083H2.34067Z" fill="white"/>
</svg>
