<svg width="174" height="59" viewBox="0 0 174 59" fill="none" xmlns="http://www.w3.org/2000/svg">
<path d="M51.9375 44.6019C51.9375 45.44 52.3567 46.1219 53.4582 46.645C54.979 47.3781 57.4399 48.0071 59.6429 48.0071C62.4197 48.0071 64.7268 47.169 66.3509 45.7028C66.8752 45.2309 67.3149 44.5977 67.4046 43.7647C67.6095 41.8548 65.5944 38.6647 61.4249 36.3271C63.452 37.463 63.9404 38.6314 63.9404 40.1513C63.9404 42.4035 62.1584 43.9226 59.5899 43.9226C57.1282 43.9226 55.0285 42.6647 53.8775 42.6647C52.7265 42.6647 51.9375 43.4489 51.9375 44.6019Z" fill="url(#paint0_linear_5825_72517)"/>
<path d="M79.8316 20.7853H83.4375V14.3556H85.9949V11.7578H77.2734V14.3556H79.8316V20.7853Z" fill="black" fill-opacity="0.8"/>
<path d="M88.6506 20.7853L90.4873 15.3866L92.3248 20.7853H95.8496L92.3949 11.7578H88.5798L85.125 20.7853H88.6506Z" fill="black" fill-opacity="0.8"/>
<path d="M97.5417 20.7853H101.148V14.3556H103.706V11.7578H94.9844V14.3556H97.5417V20.7853Z" fill="black" fill-opacity="0.8"/>
<path d="M106.369 20.7853L108.206 15.3866L110.043 20.7853H113.569L110.114 11.7578H106.299L102.844 20.7853H106.369Z" fill="black" fill-opacity="0.8"/>
<path d="M140.968 27.2411C141.445 28.3104 141.985 29.3508 142.587 30.3544L144.941 34.3254H146.65V25.2987H145.124V28.4478C145.124 29.8278 145.156 30.9893 145.272 32.1892L145.241 32.1986C144.798 31.1566 144.284 30.1461 143.702 29.1732L141.368 25.2979H139.484V34.3254H141.009V31.0926C141.009 29.6102 140.988 28.4188 140.923 27.2471L140.968 27.2411Z" fill="black" fill-opacity="0.8"/>
<path d="M132.775 31.7737H135.642L136.46 34.3246H138.23L135.295 25.2979H133.196L130.297 34.3246H132.003L132.775 31.7737ZM133.742 28.2977C133.9 27.76 134.04 27.1353 134.172 26.6037H134.2C134.336 27.126 134.482 27.7413 134.658 28.2977L135.371 30.5226H133.044L133.742 28.2977Z" fill="black" fill-opacity="0.8"/>
<path d="M105.892 33.1016C105.128 33.0957 104.378 32.8976 103.711 32.5255L103.344 33.891C103.839 34.1931 104.83 34.467 105.786 34.467C108.118 34.467 109.212 33.2057 109.212 31.7531C109.212 30.4559 108.459 29.6674 106.889 29.07C105.682 28.61 105.16 28.284 105.16 27.5918C105.16 27.0602 105.605 26.5047 106.652 26.5047C107.279 26.5004 107.898 26.6472 108.457 26.9331L108.852 25.6034C108.381 25.3644 107.663 25.1562 106.686 25.1562C104.727 25.1562 103.49 26.2708 103.49 27.748C103.49 29.0418 104.443 29.8415 105.938 30.3714C107.079 30.7854 107.539 31.1873 107.539 31.8692C107.534 32.6083 106.946 33.1016 105.892 33.1016Z" fill="black" fill-opacity="0.8"/>
<path d="M82.1781 26.5175C82.7826 26.5107 83.382 26.6302 83.9371 26.8691L84.2965 25.5574C83.9618 25.3765 83.1959 25.1572 82.1081 25.1572C79.3475 25.1572 77.2734 26.9451 77.2734 29.9184C77.2734 32.6656 79.0196 34.4671 81.8878 34.4671C82.9799 34.4671 83.8397 34.2529 84.2308 34.0567L83.9584 32.7577C83.5221 32.9532 82.8287 33.0855 82.1576 33.0855C80.1723 33.0855 79.0128 31.8241 79.0128 29.8356C79.0111 27.6662 80.3354 26.5175 82.1781 26.5175Z" fill="black" fill-opacity="0.8"/>
<path d="M128.292 34.3246V26.6839H130.897V25.2979H124.062V26.6839H126.643V34.3246H128.292Z" fill="black" fill-opacity="0.8"/>
<path d="M161.274 25.2979L160.186 27.6098C159.878 28.2687 159.628 28.826 159.405 29.3978H159.377C159.13 28.7859 158.898 28.273 158.589 27.6098L157.517 25.2979H155.633L158.489 30.5687V34.3254H160.139V30.5226L163.14 25.2988L161.274 25.2979Z" fill="black" fill-opacity="0.8"/>
<path d="M89.0752 25.1504C86.5238 25.1504 84.7734 27.1082 84.7734 29.8809C84.7734 32.5231 86.3881 34.4741 88.9412 34.4741H88.954C91.4276 34.4741 93.2626 32.745 93.2626 29.7197C93.2635 27.1398 91.7086 25.1504 89.0752 25.1504ZM89.0103 33.1513H88.9975C87.4204 33.1513 86.4982 31.6339 86.5025 29.8391C86.5076 28.0444 87.3692 26.469 89.0146 26.469C90.66 26.469 91.5071 28.0785 91.5071 29.7811C91.5071 31.6723 90.6037 33.1538 89.0095 33.1538L89.0103 33.1513Z" fill="black" fill-opacity="0.8"/>
<path d="M152.982 26.5175C153.587 26.5107 154.187 26.631 154.742 26.8691L155.102 25.5574C154.766 25.3765 154.001 25.1572 152.913 25.1572C150.152 25.1572 148.078 26.9451 148.078 29.9184C148.078 32.6656 149.824 34.4671 152.692 34.4671C153.784 34.4671 154.644 34.2538 155.035 34.0567L154.763 32.7577C154.326 32.9549 153.633 33.0863 152.962 33.0863C150.977 33.0863 149.817 31.8241 149.817 29.8356C149.815 27.6662 151.14 26.5175 152.982 26.5175Z" fill="black" fill-opacity="0.8"/>
<path d="M121.268 25.2979H119.617V34.3254H124.981V32.9412H121.268V25.2979Z" fill="black" fill-opacity="0.8"/>
<path d="M117.735 30.4543V25.2979H116.084V30.561C116.084 32.3301 115.37 33.146 114.181 33.146C113.062 33.146 112.33 32.325 112.33 30.561V25.2979H110.68V30.462C110.68 33.3013 112.038 34.473 114.121 34.473C116.303 34.4738 117.735 33.2356 117.735 30.4543Z" fill="black" fill-opacity="0.8"/>
<path d="M101.846 25.2987H100.32V28.4478C100.32 29.8278 100.35 30.9893 100.467 32.1892L100.436 32.1986C99.9925 31.1566 99.4785 30.1453 98.897 29.1732L96.5634 25.2979H94.6797V34.3254H96.2073V31.0926C96.2073 29.6102 96.1851 28.4188 96.1194 27.2471L96.1621 27.2377C96.6385 28.3079 97.179 29.3472 97.7819 30.351L100.136 34.3218H101.846V25.2987Z" fill="black" fill-opacity="0.8"/>
<path d="M108.9 38.8379H107.25V47.8645H108.9V38.8379Z" fill="black" fill-opacity="0.8"/>
<path d="M95.9115 43.6328V43.5952C96.7594 43.2957 97.5398 42.5096 97.5398 41.3558C97.5398 40.5877 97.2572 39.9682 96.7688 39.5585C96.1642 39.0541 95.1216 38.8365 94.0039 38.8365C93.1731 38.8237 92.3423 38.8886 91.5234 39.0294V47.864H93.1475V44.1824H93.9715C94.9022 44.2046 95.3274 44.5835 95.5844 45.7501C95.8338 46.8638 96.0498 47.602 96.1864 47.864H97.8686C97.6884 47.5141 97.445 46.4866 97.1615 45.3669C96.937 44.4964 96.5596 43.8785 95.9115 43.6328ZM94.1141 42.9816H93.1458V40.1525C93.4805 40.0876 93.822 40.0603 94.1627 40.0706C95.2215 40.0706 95.908 40.5306 95.908 41.5069C95.908 42.397 95.2241 42.9816 94.1141 42.9816Z" fill="black" fill-opacity="0.8"/>
<path d="M103.208 42.9678C102.859 44.0636 102.529 45.1662 102.29 46.2321H102.262C102.027 45.1406 101.72 44.0841 101.377 42.9439L100.144 38.8389H98.3438L101.263 47.8656H103.155L106.277 38.8389H104.521L103.208 42.9678Z" fill="black" fill-opacity="0.8"/>
<path d="M120.323 43.8603H123.726V42.5144H120.323V40.1957H123.929V38.8379H118.672V47.8654H124.128V46.5084H120.323V43.8603Z" fill="black" fill-opacity="0.8"/>
<path d="M115.225 40.0577C115.83 40.0508 116.43 40.1712 116.985 40.4093L117.344 39.0976C117.009 38.9166 116.243 38.6973 115.156 38.6973C112.394 38.6973 110.32 40.4903 110.32 43.4586C110.32 46.2057 112.067 48.0073 114.935 48.0073C116.027 48.0073 116.887 47.794 117.278 47.5968L117.005 46.2979C116.569 46.495 115.876 46.6265 115.205 46.6265C113.219 46.6265 112.06 45.3642 112.06 43.3758C112.055 41.2064 113.38 40.0577 115.225 40.0577Z" fill="black" fill-opacity="0.8"/>
<path d="M80.8119 42.6111C79.6054 42.1511 79.0837 41.8251 79.0837 41.133C79.0837 40.6013 79.5285 40.0457 80.5754 40.0457C81.2021 40.0414 81.8212 40.1882 82.3796 40.4741L82.775 39.1445C82.3045 38.9055 81.5864 38.6973 80.6087 38.6973C78.6507 38.6973 77.4135 39.8119 77.4135 41.2892C77.4135 42.5829 78.3664 43.3835 79.8615 43.9126C81.004 44.3273 81.4626 44.7293 81.4626 45.4103C81.4626 46.1494 80.8734 46.6427 79.8206 46.6427C79.0563 46.6367 78.3066 46.4387 77.6398 46.0666L77.2734 47.4321C77.767 47.7342 78.7583 48.0082 79.7147 48.0082C82.0466 48.0082 83.1404 46.7468 83.1404 45.2943C83.1353 43.9971 82.3805 43.2085 80.8119 42.6111Z" fill="black" fill-opacity="0.8"/>
<path d="M86.2686 43.8603H89.6712V42.5144H86.2686V40.1957H89.8753V38.8379H84.6172V47.8654H90.0734V46.5084H86.2686V43.8603Z" fill="black" fill-opacity="0.8"/>
<path d="M128.719 42.6111C127.513 42.1511 126.99 41.8251 126.99 41.133C126.99 40.6013 127.435 40.0457 128.483 40.0457C129.109 40.0414 129.728 40.1882 130.287 40.4741L130.682 39.1445C130.212 38.9055 129.494 38.6973 128.516 38.6973C126.557 38.6973 125.32 39.8119 125.32 41.2892C125.32 42.5829 126.274 43.3835 127.768 43.9126C128.91 44.3273 129.369 44.7293 129.369 45.4103C129.369 46.1494 128.78 46.6427 127.729 46.6427C126.965 46.6367 126.214 46.4387 125.546 46.0666L125.18 47.4321C125.674 47.7342 126.666 48.0082 127.621 48.0082C129.953 48.0082 131.047 46.7468 131.047 45.2943C131.042 43.9971 130.287 43.2085 128.719 42.6111Z" fill="black" fill-opacity="0.8"/>
<path d="M23.2737 47.3768C25.3733 46.5917 26.9948 45.1245 28.0434 42.9773L25.685 38.7341C24.6364 41.8764 22.8032 43.5534 20.2868 43.5534C17.6671 43.5534 15.9372 42.0334 15.9372 38.5771L15.8817 40.5657C15.4206 44.785 17.9404 48.5426 23.2737 47.3768Z" fill="url(#paint1_linear_5825_72517)"/>
<path d="M29.0938 33.7084C29.0938 43.0866 32.8671 48.3249 44.8162 46.5413C48.6415 44.5511 51.3671 40.517 53.2533 34.3365L54.3539 30.7222C53.3062 29.3602 52.887 27.8419 52.887 26.2179C52.887 24.4888 53.5154 22.9177 54.5639 21.7656C52.9911 23.4417 51.6822 25.9038 50.6336 29.3636L49.4278 33.3431C47.2769 40.3582 43.8743 43.7105 38.5795 43.7105C32.762 43.7105 29.0938 39.6772 29.0938 33.7084Z" fill="url(#paint2_linear_5825_72517)"/>
<path d="M44.815 46.5399C32.8693 48.321 29.0935 41.9305 29.0935 33.7095C29.0935 27.7381 32.7618 23.6519 38.0549 23.6519C39.7934 23.6391 41.5123 24.0146 43.0868 24.752C43.7682 25.066 44.3446 25.171 44.8688 25.171C46.1266 25.171 46.9651 24.3329 46.9651 23.0724C46.9651 22.2873 46.4938 21.5013 45.3931 20.9773C43.4019 19.9813 40.8317 19.4053 38.0558 19.4053C29.7758 19.4053 24.0625 25.2725 24.0625 33.8102C24.0625 42.1917 29.5648 48.006 38.4229 48.006C40.8334 48.006 42.9288 47.535 44.815 46.5399Z" fill="url(#paint3_linear_5825_72517)"/>
<path d="M24.0547 33.8112C24.0547 25.2727 29.768 19.4062 38.048 19.4062C40.8257 19.4062 43.3941 19.9849 45.3854 20.9783C46.486 21.5023 46.9573 22.2882 46.9573 23.0735C46.9573 24.3314 46.1188 25.172 44.8611 25.172C44.3368 25.172 43.7604 25.0671 43.079 24.753C41.5045 24.0173 39.7856 23.641 38.0472 23.6529C30.7636 23.6512 24.0547 28.2589 24.0547 33.8112Z" fill="url(#paint4_linear_5825_72517)"/>
<path d="M55.3462 21.083C54.874 21.5336 54.6085 22.1592 54.6119 22.812C54.6119 24.5402 56.2368 27.1073 60.0109 29.7256L64.3085 32.7109C67.4525 34.911 68.7102 37.0062 68.7102 40.1493C68.7102 42.4015 67.8196 44.3396 66.3518 45.7017C66.8761 45.2297 67.1903 44.6016 67.1903 43.7636C67.1903 41.9304 65.3553 39.0493 61.425 36.326L57.4946 33.6027C54.1926 31.2985 52.8828 29.1504 52.8828 26.2172C52.8828 24.4882 53.5113 22.917 54.5598 21.7649C54.8083 21.5217 55.0713 21.2946 55.3462 21.083Z" fill="url(#paint5_linear_5825_72517)"/>
<path d="M60.0093 29.7297C58.3315 28.5247 57.5988 27.4255 57.5988 26.1155C57.5988 24.4394 58.9616 23.3922 60.8999 23.3922C63.3616 23.3922 64.5195 24.5443 65.9839 24.5443C67.1375 24.5443 67.923 23.7592 67.923 22.6062C67.923 21.7682 67.5038 21.0863 66.4023 20.5631C64.6723 19.7251 62.7827 19.4102 60.742 19.4102C58.5936 19.4102 56.7065 20.0391 55.3438 21.0871C54.8716 21.5377 54.606 22.1633 54.6094 22.8162C54.6111 24.5401 56.2361 27.1072 60.0093 29.7297Z" fill="url(#paint6_linear_5825_72517)"/>
<path d="M10.9062 24.7496C10.9062 21.6073 12.9504 19.7213 15.9381 19.7213V14.378C15.9381 12.806 14.8896 11.7588 13.4226 11.7588C11.9557 11.7588 10.9071 12.8068 10.9071 14.378L10.9062 24.7496Z" fill="url(#paint7_linear_5825_72517)"/>
<path d="M19.8165 47.9535C20.9939 47.9578 22.1629 47.7615 23.2746 47.3749C17.9814 48.2658 15.9911 44.6251 15.9381 40.5663V23.8059H22.0698C23.4855 23.8059 24.4282 22.9678 24.4282 21.7628C24.4282 20.5578 23.4872 19.7197 22.0698 19.7197H15.9381C12.9504 19.7197 10.9062 21.6058 10.9062 24.7481V39.153C10.9062 44.9153 14.2083 47.9535 19.8165 47.9535Z" fill="url(#paint8_linear_5825_72517)"/>
<defs>
<linearGradient id="paint0_linear_5825_72517" x1="65.9135" y1="40.9573" x2="51.7122" y2="44.7186" gradientUnits="userSpaceOnUse">
<stop stop-color="#EE3984"/>
<stop offset="1" stop-color="#7800DA"/>
</linearGradient>
<linearGradient id="paint1_linear_5825_72517" x1="15.0734" y1="44.4147" x2="29.6181" y2="39.7973" gradientUnits="userSpaceOnUse">
<stop stop-color="#EE3984"/>
<stop offset="1" stop-color="#7800DA"/>
</linearGradient>
<linearGradient id="paint2_linear_5825_72517" x1="37.0382" y1="41.7866" x2="46.8224" y2="25.7928" gradientUnits="userSpaceOnUse">
<stop stop-color="#EE3984"/>
<stop offset="1" stop-color="#7800DA"/>
</linearGradient>
<linearGradient id="paint3_linear_5825_72517" x1="34.6716" y1="26.5561" x2="39.8574" y2="44.8528" gradientUnits="userSpaceOnUse">
<stop stop-color="#FF0000"/>
<stop offset="1" stop-color="#EE3984"/>
</linearGradient>
<linearGradient id="paint4_linear_5825_72517" x1="24.0548" y1="26.6087" x2="46.9571" y2="26.6087" gradientUnits="userSpaceOnUse">
<stop stop-color="#FFC708"/>
<stop offset="1" stop-color="#FA3B00"/>
</linearGradient>
<linearGradient id="paint5_linear_5825_72517" x1="52.8829" y1="33.3921" x2="68.7098" y2="33.3921" gradientUnits="userSpaceOnUse">
<stop stop-color="#FF0000"/>
<stop offset="1" stop-color="#EE3984"/>
</linearGradient>
<linearGradient id="paint6_linear_5825_72517" x1="54.6103" y1="24.5701" x2="67.9228" y2="24.5701" gradientUnits="userSpaceOnUse">
<stop stop-color="#FFC708"/>
<stop offset="1" stop-color="#F05731"/>
</linearGradient>
<linearGradient id="paint7_linear_5825_72517" x1="13.4223" y1="13.1416" x2="13.4223" y2="23.5129" gradientUnits="userSpaceOnUse">
<stop stop-color="#FFC708"/>
<stop offset="1" stop-color="#F05731"/>
</linearGradient>
<linearGradient id="paint8_linear_5825_72517" x1="19.1264" y1="21.1105" x2="16.415" y2="40.734" gradientUnits="userSpaceOnUse">
<stop stop-color="#F80000"/>
<stop offset="1" stop-color="#EE3984"/>
</linearGradient>
</defs>
</svg>
