<svg width="25" height="24" viewBox="0 0 25 24" fill="none" xmlns="http://www.w3.org/2000/svg">
<g clip-path="url(#clip0_220_2390)">
<path d="M22.2327 18.5534C21.5732 17.9802 20.9959 17.3232 20.5162 16.6C19.9925 15.6017 19.6786 14.5115 19.5929 13.3934V10.1C19.5975 8.34376 18.944 6.64633 17.7552 5.32667C16.5665 4.007 14.9243 3.15592 13.1372 2.93335V2.07335C13.1372 1.83731 13.0411 1.61093 12.8698 1.44402C12.6986 1.27712 12.4664 1.18335 12.2243 1.18335C11.9821 1.18335 11.7499 1.27712 11.5787 1.44402C11.4075 1.61093 11.3113 1.83731 11.3113 2.07335V2.94668C9.54027 3.1853 7.91794 4.04152 6.74481 5.35675C5.57167 6.67199 4.92722 8.35711 4.93083 10.1V13.3934C4.84518 14.5115 4.5313 15.6017 4.00761 16.6C3.53634 17.3216 2.96826 17.9785 2.31845 18.5534C2.24551 18.6158 2.18704 18.6927 2.14695 18.7789C2.10686 18.8651 2.08606 18.9587 2.08594 19.0534V19.96C2.08594 20.1368 2.15799 20.3064 2.28624 20.4314C2.41449 20.5564 2.58843 20.6267 2.76981 20.6267H21.7813C21.9627 20.6267 22.1366 20.5564 22.2649 20.4314C22.3931 20.3064 22.4652 20.1368 22.4652 19.96V19.0534C22.4651 18.9587 22.4443 18.8651 22.4042 18.7789C22.3641 18.6927 22.3056 18.6158 22.2327 18.5534ZM3.50838 19.2934C4.14466 18.6942 4.70488 18.0227 5.17702 17.2934C5.83669 16.0877 6.22158 14.7574 6.3054 13.3934V10.1C6.27828 9.31871 6.41272 8.54007 6.70071 7.81046C6.9887 7.08086 7.42435 6.41521 7.98173 5.85315C8.53911 5.2911 9.20681 4.84413 9.94507 4.53887C10.6833 4.2336 11.4771 4.07629 12.279 4.07629C13.0809 4.07629 13.8746 4.2336 14.6129 4.53887C15.3512 4.84413 16.0189 5.2911 16.5762 5.85315C17.1336 6.41521 17.5693 7.08086 17.8573 7.81046C18.1453 8.54007 18.2797 9.31871 18.2526 10.1V13.3934C18.3364 14.7574 18.7213 16.0877 19.381 17.2934C19.8531 18.0227 20.4133 18.6942 21.0496 19.2934H3.50838Z" fill="black"/>
<path d="M12.3093 22.8534C12.7401 22.8437 13.1535 22.6858 13.4764 22.4077C13.7993 22.1295 14.0109 21.749 14.0737 21.3334H10.4766C10.5412 21.7602 10.7626 22.1497 11.0998 22.4293C11.4369 22.7089 11.8667 22.8596 12.3093 22.8534Z" fill="black"/>
</g>
<defs>
<clipPath id="clip0_220_2390">
<rect width="24.6192" height="24" fill="white"/>
</clipPath>
</defs>
</svg>
