<svg width="25" height="24" viewBox="0 0 25 24" fill="none" xmlns="http://www.w3.org/2000/svg">
<g clip-path="url(#clip0_220_2387)">
<path d="M22.4652 18.7533L22.2327 18.5534C21.573 17.9804 20.9957 17.3234 20.5162 16.6C19.9925 15.6017 19.6786 14.5115 19.5929 13.3934V10.1C19.5975 8.34376 18.944 6.64633 17.7552 5.32666C16.5665 4.007 14.9243 3.15592 13.1372 2.93335V2.07335C13.1372 1.83731 13.0411 1.61093 12.8698 1.44402C12.6986 1.27712 12.4664 1.18335 12.2243 1.18335C11.9821 1.18335 11.7499 1.27712 11.5787 1.44402C11.4075 1.61093 11.3113 1.83731 11.3113 2.07335V2.94668C9.54027 3.1853 7.91794 4.04152 6.74481 5.35675C5.57167 6.67199 4.92722 8.35711 4.93083 10.1V13.3934C4.84518 14.5115 4.5313 15.6017 4.00761 16.6C3.53634 17.3216 2.96826 17.9785 2.31845 18.5534L2.08594 18.7533V20.6334H22.4652V18.7533Z" fill="black"/>
<path d="M10.4766 21.3334C10.5365 21.756 10.7513 22.1431 11.0813 22.4233C11.4113 22.7036 11.8341 22.8579 12.2717 22.8579C12.7093 22.8579 13.1322 22.7036 13.4621 22.4233C13.7921 22.1431 14.0069 21.756 14.0669 21.3334H10.4766Z" fill="black"/>
</g>
<defs>
<clipPath id="clip0_220_2387">
<rect width="24.6192" height="24" fill="white"/>
</clipPath>
</defs>
</svg>
