<svg xmlns="http://www.w3.org/2000/svg" xmlns:xlink="http://www.w3.org/1999/xlink" viewBox="0,0,256,256" width="30px" height="30px" fill-rule="nonzero"><g fill-rule="nonzero" stroke="none" stroke-width="1" stroke-linecap="butt" stroke-linejoin="miter" stroke-miterlimit="10" stroke-dasharray="" stroke-dashoffset="0" font-family="none" font-weight="none" font-size="none" text-anchor="none" style="mix-blend-mode: normal"><g transform="scale(3.55556,3.55556)"><path d="M28.802,58h14.396c-1.504,2.398 -4.165,4 -7.198,4c-3.033,0 -5.693,-1.602 -7.198,-4zM58.328,39.781c0.274,0.41 2.672,4.182 2.672,10.219c0,2.209 -1.791,4 -4,4h-42c-2.209,0 -4,-1.791 -4,-4c0,-6.037 2.398,-9.809 2.672,-10.219c0.414,-0.621 0.975,-1.158 1.672,-1.422c3.459,-1.314 3.764,-8.46 3.98,-10.517c0.607,-5.776 3.732,-11.143 10.801,-13.383c1.155,-1.934 3.142,-3.459 5.875,-3.459c2.738,0 4.728,1.531 5.882,3.471c4.343,1.198 10.329,5.748 10.794,13.371c0.151,2.483 0.665,9.081 3.98,10.517c0.699,0.303 1.258,0.801 1.672,1.422z"></path></g></g></svg>