<svg width="21" height="20" viewBox="0 0 21 20" fill="none" xmlns="http://www.w3.org/2000/svg">
<path d="M18.5152 0H6.20559C5.07721 0 4.15399 0.9 4.15399 2V14C4.15399 15.1 5.07721 16 6.20559 16H18.5152C19.6436 16 20.5668 15.1 20.5668 14V2C20.5668 0.9 19.6436 0 18.5152 0ZM18.5152 14H6.20559V2H18.5152V14ZM2.10238 4H0.0507812V18C0.0507812 19.1 0.974002 20 2.10238 20H16.4636V18H2.10238V4ZM14.412 10V7C14.412 6.45 13.9504 6 13.3862 6H11.3346V11H13.3862C13.9504 11 14.412 10.55 14.412 10ZM12.3604 7H13.3862V10H12.3604V7ZM16.4636 9H17.4894V8H16.4636V7H17.4894V6H15.4378V11H16.4636V9ZM8.25719 9H9.28299C9.84719 9 10.3088 8.55 10.3088 8V7C10.3088 6.45 9.84719 6 9.28299 6H7.23139V11H8.25719V9ZM8.25719 7H9.28299V8H8.25719V7Z" fill="black"/>
</svg>
