<svg width="22" height="18" viewBox="0 0 22 18" fill="none" xmlns="http://www.w3.org/2000/svg">
<path d="M11 0.00305176C10.6064 0.00305175 10.2167 0.0805714 9.8531 0.231185C9.48948 0.381798 9.1591 0.602555 8.8808 0.880853C8.6025 1.15915 8.38175 1.48954 8.23113 1.85315C8.08052 2.21676 8.003 2.60648 8.003 3.00005C8.003 3.39362 8.08052 3.78334 8.23113 4.14695C8.38175 4.51057 8.6025 4.84095 8.8808 5.11925C9.1591 5.39755 9.48948 5.61831 9.8531 5.76892C10.2167 5.91953 10.6064 5.99705 11 5.99705C11.7949 5.99705 12.5572 5.6813 13.1192 5.11925C13.6812 4.5572 13.997 3.79491 13.997 3.00005C13.997 2.2052 13.6812 1.4429 13.1192 0.880853C12.5572 0.318806 11.7949 0.00305176 11 0.00305176ZM17.75 1.50005C17.1533 1.50005 16.581 1.7371 16.159 2.15906C15.7371 2.58102 15.5 3.15331 15.5 3.75005C15.5 4.34679 15.7371 4.91909 16.159 5.34104C16.581 5.763 17.1533 6.00005 17.75 6.00005C18.3467 6.00005 18.919 5.763 19.341 5.34104C19.7629 4.91909 20 4.34679 20 3.75005C20 3.15331 19.7629 2.58102 19.341 2.15906C18.919 1.7371 18.3467 1.50005 17.75 1.50005ZM4.25 1.50005C3.65326 1.50005 3.08097 1.7371 2.65901 2.15906C2.23705 2.58102 2 3.15331 2 3.75005C2 4.34679 2.23705 4.91909 2.65901 5.34104C3.08097 5.763 3.65326 6.00005 4.25 6.00005C4.84674 6.00005 5.41903 5.763 5.84099 5.34104C6.26295 4.91909 6.5 4.34679 6.5 3.75005C6.5 3.15331 6.26295 2.58102 5.84099 2.15906C5.41903 1.7371 4.84674 1.50005 4.25 1.50005ZM6.5 8.98955C6.50277 8.59355 6.66203 8.21471 6.94304 7.93567C7.22404 7.65664 7.60399 7.50004 8 7.50005H14C14.3978 7.50005 14.7794 7.65809 15.0607 7.93939C15.342 8.2207 15.5 8.60223 15.5 9.00005V13.5001C15.4999 13.9721 15.426 14.4413 15.281 14.8906C14.9489 15.9086 14.2647 16.7749 13.3513 17.3339C12.4379 17.8929 11.3551 18.108 10.2974 17.9405C9.23976 17.773 8.27642 17.2339 7.58042 16.4201C6.88442 15.6062 6.50135 14.5709 6.5 13.5001V8.98955ZM5 9.00005C5 8.45255 5.1455 7.94105 5.402 7.50005H2C1.60218 7.50005 1.22064 7.65809 0.93934 7.93939C0.658035 8.2207 0.5 8.60223 0.5 9.00005V12.7501C0.499796 13.364 0.650339 13.9686 0.938409 14.5108C1.22648 15.053 1.64326 15.5161 2.15216 15.8596C2.66106 16.2031 3.24651 16.4163 3.85708 16.4807C4.46766 16.545 5.0847 16.4584 5.654 16.2286C5.22227 15.3834 4.99808 14.4476 5 13.4986V9.00005ZM17 9.00005V13.5001C17 14.4826 16.7645 15.4096 16.346 16.2286C16.9153 16.4584 17.5323 16.545 18.1429 16.4807C18.7535 16.4163 19.3389 16.2031 19.8478 15.8596C20.3567 15.5161 20.7735 15.053 21.0616 14.5108C21.3497 13.9686 21.5002 13.364 21.5 12.7501V9.00005C21.5 8.60223 21.342 8.2207 21.0607 7.93939C20.7794 7.65809 20.3978 7.50005 20 7.50005H16.598C16.853 7.94105 17 8.45255 17 9.00005Z" fill="black"/>
</svg>
