<svg width="24" height="21" viewBox="0 0 24 21" fill="none" xmlns="http://www.w3.org/2000/svg">
<path d="M18.2937 2.63098V8.58445L15.7766 6.59996L13.2594 8.58445V2.63098H8.2252V18.5069H20.8108V2.63098H18.2937ZM0.673828 5.60771V3.62322H3.19095V2.63098C3.19095 2.10466 3.45615 1.59989 3.9282 1.22773C4.40025 0.855564 5.04049 0.646484 5.70807 0.646484H20.8108C22.1323 0.646484 23.3279 1.58912 23.3279 2.63098V18.5069C23.3279 19.5488 22.1323 20.4914 20.8108 20.4914H5.70807C4.38658 20.4914 3.19095 19.5488 3.19095 18.5069V17.5147H0.673828V15.5302H3.19095V11.5612H0.673828V9.57669H3.19095V5.60771H0.673828ZM3.19095 3.62322V5.60771H5.70807V3.62322H3.19095ZM3.19095 17.5147H5.70807V15.5302H3.19095V17.5147ZM3.19095 11.5612H5.70807V9.57669H3.19095V11.5612Z" fill="#F5F7FA"/>
</svg>
