<svg width="21" height="20" viewBox="0 0 21 20" fill="none" xmlns="http://www.w3.org/2000/svg">
<path d="M7.74429 7.325V12.675C7.74429 13.075 7.92381 13.3667 8.28284 13.55C8.64187 13.7333 8.99235 13.7167 9.33428 13.5L13.5914 10.85C13.9162 10.6667 14.0786 10.3833 14.0786 10C14.0786 9.61667 13.9162 9.33333 13.5914 9.15L9.33428 6.5C8.99235 6.28333 8.64187 6.26667 8.28284 6.45C7.92381 6.63333 7.74429 6.925 7.74429 7.325ZM10.3088 20C8.88977 20 7.55623 19.7373 6.30817 19.212C5.06011 18.6873 3.97447 17.975 3.05125 17.075C2.12803 16.175 1.39732 15.1167 0.859113 13.9C0.320225 12.6833 0.0507812 11.3833 0.0507812 10C0.0507812 8.61667 0.320225 7.31667 0.859113 6.1C1.39732 4.88333 2.12803 3.825 3.05125 2.925C3.97447 2.025 5.06011 1.31233 6.30817 0.787C7.55623 0.262333 8.88977 0 10.3088 0C11.7278 0 13.0614 0.262333 14.3094 0.787C15.5575 1.31233 16.6431 2.025 17.5663 2.925C18.4896 3.825 19.2203 4.88333 19.7585 6.1C20.2974 7.31667 20.5668 8.61667 20.5668 10C20.5668 11.3833 20.2974 12.6833 19.7585 13.9C19.2203 15.1167 18.4896 16.175 17.5663 17.075C16.6431 17.975 15.5575 18.6873 14.3094 19.212C13.0614 19.7373 11.7278 20 10.3088 20ZM10.3088 18C12.5827 18 14.519 17.221 16.1179 15.663C17.7161 14.1043 18.5152 12.2167 18.5152 10C18.5152 7.78333 17.7161 5.89567 16.1179 4.337C14.519 2.779 12.5827 2 10.3088 2C8.03494 2 6.09891 2.779 4.50071 4.337C2.90183 5.89567 2.10238 7.78333 2.10238 10C2.10238 12.2167 2.90183 14.1043 4.50071 15.663C6.09891 17.221 8.03494 18 10.3088 18Z" fill="black"/>
</svg>
