<svg width="26" height="29" viewBox="0 0 26 29" fill="none" xmlns="http://www.w3.org/2000/svg">
<path d="M1.90292 0.719727C2.72593 0.719727 3.2746 1.27298 3.2746 2.10286V3.34767C4.78344 2.65611 6.70378 2.10286 8.76129 2.10286C12.8763 2.10286 12.8763 4.86911 15.6197 4.86911C19.7347 4.86911 21.1063 2.10286 21.1063 2.10286V13.1679C21.1063 13.1679 19.7347 15.9341 15.6197 15.9341C11.5046 15.9341 11.5046 13.1679 8.76129 13.1679C4.64627 13.1679 3.2746 15.9341 3.2746 15.9341V25.616H0.53125V2.10286C0.53125 1.27298 1.07992 0.719727 1.90292 0.719727ZM3.2746 6.52887V12.338C3.2746 12.338 6.01794 10.2633 8.76129 10.2633C11.5046 10.2633 12.8763 13.0296 15.6197 13.0296C18.363 13.0296 18.363 11.6464 18.363 11.6464V6.94381C18.363 6.94381 16.9913 7.63537 15.6197 7.63537C12.8763 7.63537 11.5046 4.86911 8.76129 4.86911C6.01794 4.86911 3.2746 6.52887 3.2746 6.52887ZM18.363 17.3173V21.4667H14.248V24.2329H18.363V28.3823H21.1063V24.2329H25.2214V21.4667H21.1063V17.3173H18.363Z" fill="white"/>
</svg>
