<svg width="22" height="23" viewBox="0 0 22 23" fill="none" xmlns="http://www.w3.org/2000/svg">
<path d="M16.4943 10.6982L17.8541 9.22824C18.3289 8.71491 18.9333 8.43491 19.5916 8.36491V7.19824L13.1164 0.198242H2.32441C1.1265 0.198242 0.166016 1.23658 0.166016 2.53158V18.8649C0.166016 19.4837 0.393418 20.0772 0.798196 20.5148C1.20297 20.9524 1.75197 21.1982 2.32441 21.1982H8.79961V19.0166L8.93991 18.8649H2.32441V2.53158H9.87881V10.6982H16.4943ZM12.0372 1.94824L17.9728 8.36491H12.0372V1.94824ZM17.5735 12.8332L19.7751 15.2132L13.1596 22.3649H10.958V19.9849L17.5735 12.8332ZM21.5881 13.2532L20.5305 14.3966L18.3289 12.0166L19.3866 10.8732C19.5916 10.6399 19.9477 10.6399 20.1636 10.8732L21.5881 12.4132C21.804 12.6466 21.804 13.0316 21.5881 13.2532Z" fill="#F5F7FA"/>
</svg>
