<svg width="17" height="17" viewBox="0 0 17 17" xmlns="http://www.w3.org/2000/svg">
<path d="M8.33333 11.25L12.0833 7.5L10.8958 6.33333L8.33333 8.89583L5.77083 6.33333L4.58333 7.5L8.33333 11.25ZM8.33333 16.6667C7.18056 16.6667 6.09722 16.4478 5.08333 16.01C4.06944 15.5722 3.1875 14.9786 2.4375 14.2292C1.6875 13.4792 1.09389 12.5972 0.656667 11.5833C0.219445 10.5694 0.000555556 9.48611 0 8.33333C0 7.18056 0.218889 6.09722 0.656667 5.08333C1.09444 4.06944 1.68806 3.1875 2.4375 2.4375C3.1875 1.6875 4.06944 1.09389 5.08333 0.656667C6.09722 0.219445 7.18056 0.000555556 8.33333 0C9.48611 0 10.5694 0.218889 11.5833 0.656667C12.5972 1.09444 13.4792 1.68806 14.2292 2.4375C14.9792 3.1875 15.5731 4.06944 16.0108 5.08333C16.4486 6.09722 16.6672 7.18056 16.6667 8.33333C16.6667 9.48611 16.4478 10.5694 16.01 11.5833C15.5722 12.5972 14.9786 13.4792 14.2292 14.2292C13.4792 14.9792 12.5972 15.5731 11.5833 16.0108C10.5694 16.4486 9.48611 16.6672 8.33333 16.6667Z"/>
</svg>
