<svg width="19" height="18" viewBox="0 0 19 18" fill="none" xmlns="http://www.w3.org/2000/svg">
<path d="M14.4393 0H2.12973C1.58561 0 1.06378 0.210714 0.679025 0.585786C0.294275 0.960859 0.078125 1.46957 0.078125 2V16C0.078125 16.5304 0.294275 17.0391 0.679025 17.4142C1.06378 17.7893 1.58561 18 2.12973 18H16.4909C17.6193 18 18.5426 17.1 18.5426 16V4L14.4393 0ZM9.31034 16C7.60751 16 6.23293 14.66 6.23293 13C6.23293 11.34 7.60751 10 9.31034 10C11.0132 10 12.3877 11.34 12.3877 13C12.3877 14.66 11.0132 16 9.31034 16ZM12.3877 6H2.12973V2H12.3877V6Z" fill="black"/>
</svg>
