<svg width="22" height="22" viewBox="0 0 22 22" fill="none" xmlns="http://www.w3.org/2000/svg">
<path d="M16.7341 15.6033L21.0171 19.8853L19.6021 21.3003L15.3201 17.0173C13.7268 18.2945 11.7451 18.9892 9.70312 18.9863C4.73513 18.9863 0.703125 14.9543 0.703125 9.98633C0.703125 5.01833 4.73513 0.986328 9.70312 0.986328C14.6711 0.986328 18.7031 5.01833 18.7031 9.98633C18.706 12.0283 18.0113 14.01 16.7341 15.6033ZM14.7281 14.8613C15.9972 13.5562 16.706 11.8067 16.7031 9.98633C16.7031 6.11833 13.5701 2.98633 9.70312 2.98633C5.83512 2.98633 2.70312 6.11833 2.70312 9.98633C2.70312 13.8533 5.83512 16.9863 9.70312 16.9863C11.5235 16.9892 13.273 16.2804 14.5781 15.0113L14.7281 14.8613Z" fill="url(#paint0_linear_2110_14849)"/>
<defs>
<linearGradient id="paint0_linear_2110_14849" x1="0.703125" y1="0.986328" x2="24.3691" y2="6.26114" gradientUnits="userSpaceOnUse">
<stop stop-color="#DC0916"/>
<stop offset="1" stop-color="#F41FD6"/>
</linearGradient>
</defs>
</svg>
