<svg width="17" height="20" viewBox="0 0 17 20" fill="none" xmlns="http://www.w3.org/2000/svg">
<path d="M8.30993 20C5.93349 19.4167 3.97181 18.0873 2.4249 16.012C0.877312 13.9373 0.103516 11.6333 0.103516 9.1V3L8.30993 0L16.5163 3V9.1C16.5163 11.6333 15.7429 13.9373 14.196 16.012C12.6484 18.0873 10.6864 19.4167 8.30993 20ZM8.30993 17.9C9.96831 17.4 11.3531 16.4127 12.4644 14.938C13.5757 13.4627 14.2254 11.8167 14.4134 10H8.30993V2.125L2.15512 4.375V9.55C2.15512 9.66667 2.17222 9.81667 2.20641 10H8.30993V17.9Z" fill="black"/>
</svg>
