<svg width="18" height="18" viewBox="0 0 18 18" fill="none" xmlns="http://www.w3.org/2000/svg">
<path fill-rule="evenodd" clip-rule="evenodd" d="M15.5893 0.833984H7.28014C6.36364 0.833984 5.61831 1.58148 5.61831 2.50065V5.83398H2.29464C1.37814 5.83398 0.632812 6.58149 0.632812 7.50065V15.834C0.632812 16.7532 1.37814 17.5007 2.29464 17.5007H10.6038C11.5203 17.5007 12.2656 16.7532 12.2656 15.834V12.5007H15.5893C16.5058 12.5007 17.2511 11.7532 17.2511 10.834V2.50065C17.2511 1.58148 16.5058 0.833984 15.5893 0.833984V0.833984ZM2.29464 15.834V7.50065H10.6038L10.6055 15.834H2.29464V15.834ZM15.5893 10.834H12.2656V7.50065C12.2656 6.58149 11.5203 5.83398 10.6038 5.83398H7.28014V2.50065H15.5893V10.834V10.834Z" fill="white"/>
</svg>
