<svg width="22" height="24" viewBox="0 0 22 24" fill="none" xmlns="http://www.w3.org/2000/svg">
<path d="M18.8269 2.47824C18.7816 1.81444 18.486 1.19259 17.9998 0.738429C17.5136 0.284265 16.873 0.0316768 16.2077 0.0317383H2.79102L2.61135 0.0375718C1.94756 0.0831111 1.32583 0.379016 0.871882 0.865452C0.417933 1.35189 0.165639 1.99256 0.166016 2.6579V20.7389L0.17185 20.9186C0.217092 21.5824 0.51271 22.2042 0.998927 22.6584C1.48514 23.1125 2.12568 23.3651 2.79102 23.3651H11.6203L9.87035 21.6151H2.79102L2.67202 21.6069C2.46254 21.5781 2.27056 21.4745 2.13158 21.3152C1.9926 21.1558 1.91603 20.9515 1.91602 20.7401V2.6579L1.92418 2.53891C1.95294 2.32943 2.05658 2.13744 2.21593 1.99847C2.37528 1.85949 2.57957 1.78291 2.79102 1.7829H16.2077L16.3267 1.79107C16.5362 1.81983 16.7281 1.92347 16.8671 2.08282C17.0061 2.24217 17.0827 2.44646 17.0827 2.6579V16.1527L18.4349 14.8006C18.5585 14.6769 18.6915 14.5672 18.8315 14.4739V2.65674L18.8269 2.47824ZM14.502 23.3639C14.4725 23.3655 14.4429 23.3655 14.4134 23.3639C14.1966 23.353 13.9916 23.262 13.8382 23.1084L10.9215 20.1894C10.7575 20.0251 10.6655 19.8024 10.6657 19.5702C10.666 19.3381 10.7584 19.1156 10.9227 18.9516C11.087 18.7876 11.3097 18.6956 11.5418 18.6958C11.774 18.696 11.9965 18.7884 12.1605 18.9527L14.4577 21.2522L19.6727 16.0372C19.7534 15.9537 19.85 15.8871 19.9568 15.8413C20.0636 15.7955 20.1784 15.7714 20.2946 15.7704C20.4108 15.7695 20.526 15.7917 20.6335 15.8357C20.741 15.8798 20.8387 15.9448 20.9208 16.027C21.0029 16.1092 21.0678 16.2069 21.1118 16.3145C21.1557 16.422 21.1778 16.5372 21.1767 16.6534C21.1757 16.7696 21.1515 16.8844 21.1056 16.9911C21.0597 17.0979 20.993 17.1944 20.9094 17.2751L15.076 23.1084C14.9229 23.2617 14.7184 23.3527 14.502 23.3639ZM11.646 16.9484C11.5753 16.9456 11.5044 16.9456 11.4337 16.9484H8.61852C8.38645 16.9484 8.16389 16.8562 7.9998 16.6921C7.8357 16.528 7.74352 16.3055 7.74352 16.0734C7.74352 15.8413 7.8357 15.6188 7.9998 15.4547C8.16389 15.2906 8.38645 15.1984 8.61852 15.1984H14.4565C14.6886 15.1984 14.9111 15.2906 15.0752 15.4547C15.2393 15.6188 15.3315 15.8413 15.3315 16.0734C15.3315 16.3055 15.2393 16.528 15.0752 16.6921C14.9111 16.8562 14.6886 16.9484 14.4565 16.9484H11.646ZM5.99935 6.7424C5.99935 7.05182 5.87643 7.34857 5.65764 7.56736C5.43885 7.78615 5.1421 7.90907 4.83268 7.90907C4.52326 7.90907 4.22652 7.78615 4.00773 7.56736C3.78893 7.34857 3.66602 7.05182 3.66602 6.7424C3.66602 6.43299 3.78893 6.13624 4.00773 5.91745C4.22652 5.69865 4.52326 5.57574 4.83268 5.57574C5.1421 5.57574 5.43885 5.69865 5.65764 5.91745C5.87643 6.13624 5.99935 6.43299 5.99935 6.7424ZM7.74468 6.74007C7.74468 6.50801 7.83687 6.28545 8.00096 6.12135C8.16506 5.95726 8.38762 5.86507 8.61968 5.86507H14.4577C14.6897 5.86507 14.9123 5.95726 15.0764 6.12135C15.2405 6.28545 15.3327 6.50801 15.3327 6.74007C15.3327 6.97214 15.2405 7.19469 15.0764 7.35879C14.9123 7.52288 14.6897 7.61507 14.4577 7.61507H8.61968C8.38762 7.61507 8.16506 7.52288 8.00096 7.35879C7.83687 7.19469 7.74468 6.97214 7.74468 6.74007ZM8.61968 10.5317C8.38762 10.5317 8.16506 10.6239 8.00096 10.788C7.83687 10.9521 7.74468 11.1747 7.74468 11.4067C7.74468 11.6388 7.83687 11.8614 8.00096 12.0255C8.16506 12.1896 8.38762 12.2817 8.61968 12.2817H14.4577C14.5726 12.2817 14.6864 12.2591 14.7925 12.2151C14.8987 12.1712 14.9952 12.1067 15.0764 12.0255C15.1577 11.9442 15.2221 11.8477 15.2661 11.7416C15.3101 11.6354 15.3327 11.5216 15.3327 11.4067C15.3327 11.2918 15.3101 11.178 15.2661 11.0719C15.2221 10.9657 15.1577 10.8693 15.0764 10.788C14.9952 10.7068 14.8987 10.6423 14.7925 10.5983C14.6864 10.5544 14.5726 10.5317 14.4577 10.5317H8.61968ZM4.83268 12.5734C5.1421 12.5734 5.43885 12.4505 5.65764 12.2317C5.87643 12.0129 5.99935 11.7162 5.99935 11.4067C5.99935 11.0973 5.87643 10.8006 5.65764 10.5818C5.43885 10.363 5.1421 10.2401 4.83268 10.2401C4.52326 10.2401 4.22652 10.363 4.00773 10.5818C3.78893 10.8006 3.66602 11.0973 3.66602 11.4067C3.66602 11.7162 3.78893 12.0129 4.00773 12.2317C4.22652 12.4505 4.52326 12.5734 4.83268 12.5734ZM5.99935 16.0711C5.99935 16.3805 5.87643 16.6772 5.65764 16.896C5.43885 17.1148 5.1421 17.2377 4.83268 17.2377C4.52326 17.2377 4.22652 17.1148 4.00773 16.896C3.78893 16.6772 3.66602 16.3805 3.66602 16.0711C3.66602 15.7617 3.78893 15.4649 4.00773 15.2461C4.22652 15.0273 4.52326 14.9044 4.83268 14.9044C5.1421 14.9044 5.43885 15.0273 5.65764 15.2461C5.87643 15.4649 5.99935 15.7617 5.99935 16.0711Z" fill="#F5F7FA"/>
</svg>
