<svg width="50" height="50" viewBox="0 0 50 50" fill="none" xmlns="http://www.w3.org/2000/svg">
<path d="M13.5391 10.417C11.8099 10.417 10.4141 11.8128 10.4141 13.542C10.4141 15.2712 11.8099 16.667 13.5391 16.667C15.2682 16.667 16.6641 15.2712 16.6641 13.542C16.6641 11.8128 15.2682 10.417 13.5391 10.417ZM13.5391 10.417C11.8099 10.417 10.4141 11.8128 10.4141 13.542C10.4141 15.2712 11.8099 16.667 13.5391 16.667C15.2682 16.667 16.6641 15.2712 16.6641 13.542C16.6641 11.8128 15.2682 10.417 13.5391 10.417ZM44.6016 24.1253L25.8516 5.37533C25.0807 4.60449 24.0182 4.16699 22.9141 4.16699H8.33073C6.03906 4.16699 4.16406 6.04199 4.16406 8.33366V22.917C4.16406 24.0212 4.60156 25.0837 5.39323 25.8753L6.2474 26.7087C7.58073 25.917 9.0599 25.3962 10.5807 25.167L8.33073 22.917V8.33366H22.9141L41.6641 27.0837L27.0807 41.667L24.8307 39.417C24.6224 40.9587 24.0807 42.417 23.2891 43.7503L24.1432 44.6045C24.9141 45.3962 25.9766 45.8337 27.0807 45.8337C28.1849 45.8337 29.2474 45.3962 30.0182 44.6045L44.6016 30.0212C45.3932 29.2503 45.8307 28.1878 45.8307 27.0837C45.8307 25.9795 45.3932 24.917 44.6016 24.1253ZM13.5391 10.417C11.8099 10.417 10.4141 11.8128 10.4141 13.542C10.4141 15.2712 11.8099 16.667 13.5391 16.667C15.2682 16.667 16.6641 15.2712 16.6641 13.542C16.6641 11.8128 15.2682 10.417 13.5391 10.417ZM16.6641 37.5003V29.167H12.4974V37.5003H8.33073L14.5807 43.7503L20.8307 37.5003H16.6641Z" fill="#545454"/>
</svg>
