<svg width="9" height="9" viewBox="0 0 9 9" fill="none" xmlns="http://www.w3.org/2000/svg">
<path d="M2.025 1.35C1.6515 1.35 1.35 1.6515 1.35 2.025C1.35 2.3985 1.6515 2.7 2.025 2.7C2.3985 2.7 2.7 2.3985 2.7 2.025C2.7 1.6515 2.3985 1.35 2.025 1.35ZM2.025 1.35C1.6515 1.35 1.35 1.6515 1.35 2.025C1.35 2.3985 1.6515 2.7 2.025 2.7C2.3985 2.7 2.7 2.3985 2.7 2.025C2.7 1.6515 2.3985 1.35 2.025 1.35ZM8.7345 4.311L4.6845 0.261C4.518 0.0945 4.2885 0 4.05 0H0.9C0.405 0 0 0.405 0 0.9V4.05C0 4.2885 0.0945 4.518 0.2655 4.689L0.45 4.869C0.738 4.698 1.0575 4.5855 1.386 4.536L0.9 4.05V0.9H4.05L8.1 4.95L4.95 8.1L4.464 7.614C4.419 7.947 4.302 8.262 4.131 8.55L4.3155 8.7345C4.482 8.9055 4.7115 9 4.95 9C5.1885 9 5.418 8.9055 5.5845 8.7345L8.7345 5.5845C8.9055 5.418 9 5.1885 9 4.95C9 4.7115 8.9055 4.482 8.7345 4.311ZM2.025 1.35C1.6515 1.35 1.35 1.6515 1.35 2.025C1.35 2.3985 1.6515 2.7 2.025 2.7C2.3985 2.7 2.7 2.3985 2.7 2.025C2.7 1.6515 2.3985 1.35 2.025 1.35ZM2.7 7.2V5.4H1.8V7.2H0.9L2.25 8.55L3.6 7.2H2.7Z" fill="#F5F7FA"/>
</svg>
