<svg width="148" height="59" viewBox="0 0 740 298" fill="none" xmlns="http://www.w3.org/2000/svg">
<path d="M377.519 135.9H390.389V112.94H399.519V103.66H368.389V112.94H377.519V135.9Z" fill="#ffff"/>
<path d="M409.01 135.9L415.57 116.62L422.12 135.9H434.71L422.37 103.66H408.76L396.43 135.9H409.01Z" fill="#ffff"/>
<path d="M440.749 135.9H453.619V112.94H462.749V103.66H431.619V112.94H440.749V135.9Z" fill="#ffff"/>
<path d="M472.238 135.9L478.798 116.62L485.348 135.9H497.938L485.608 103.66H471.988L459.658 135.9H472.238Z" fill="#ffff"/>
<path d="M595.749 158.95C597.339 162.6 599.439 166.55 601.529 170.07L609.949 184.25H616.049V152.01H610.599V163.26C610.599 168.19 610.709 172.34 611.129 176.62L611.019 176.65C609.529 173.15 607.659 169.4 605.529 165.85L597.199 152.01H590.469V184.25H595.909V172.72C595.909 167.43 595.829 163.17 595.599 158.98L595.749 158.95Z" fill="#ffff"/>
<path d="M566.519 175.14H576.759L579.679 184.25H585.999L575.529 152.01H568.039L557.689 184.25H563.779L566.519 175.14ZM569.969 162.73C570.539 160.81 571.029 158.58 571.499 156.69H571.599C572.089 158.56 572.619 160.76 573.229 162.75L575.769 170.7H567.459L569.969 162.73Z" fill="#ffff"/>
<path d="M470.539 179.88C467.539 179.88 464.649 178.92 462.749 177.82L461.439 182.7C463.199 183.78 466.739 184.76 470.149 184.76C478.469 184.76 482.379 180.26 482.379 175.07C482.379 170.44 479.689 167.62 474.089 165.49C469.789 163.85 467.919 162.68 467.919 160.21C467.919 158.31 469.509 156.33 473.249 156.33C476.279 156.33 478.529 157.25 479.689 157.86L481.099 153.11C479.419 152.26 476.859 151.52 473.369 151.52C466.379 151.52 461.959 155.5 461.959 160.78C461.959 165.4 465.359 168.26 470.689 170.15C474.759 171.63 476.399 173.07 476.399 175.5C476.399 178.12 474.289 179.88 470.539 179.88Z" fill="#ffff"/>
<path d="M385.899 156.37C388.529 156.37 390.679 156.95 392.179 157.63L393.459 152.94C392.259 152.29 389.529 151.51 385.649 151.51C375.799 151.51 368.389 157.91 368.389 168.51C368.389 178.32 374.619 184.76 384.849 184.76C388.749 184.76 391.819 183.99 393.209 183.29L392.239 178.65C390.689 179.35 388.199 179.82 385.809 179.82C378.719 179.82 374.589 175.32 374.589 168.21C374.589 160.47 379.319 156.37 385.899 156.37Z" fill="#ffff"/>
<path d="M550.508 184.25V156.96H559.798V152.01H535.408V156.96H544.618V184.25H550.508Z" fill="#ffff"/>
<path d="M668.209 152.01L664.329 160.27C663.229 162.61 662.339 164.61 661.539 166.67H661.439C660.559 164.49 659.719 162.65 658.629 160.28L654.789 152.01H648.049L658.249 170.83V184.25H664.139V170.67L674.849 152.02H668.209V152.01Z" fill="#ffff"/>
<path d="M410.53 151.49C401.43 151.49 395.18 158.48 395.18 168.38C395.18 177.82 400.94 184.79 410.06 184.79H410.11C418.94 184.79 425.49 178.61 425.49 167.81C425.47 158.59 419.93 151.49 410.53 151.49ZM410.3 180.07H410.25C404.62 180.07 401.33 174.65 401.35 168.24C401.34 161.81 404.44 156.2 410.32 156.2C416.2 156.2 419.22 161.95 419.22 168.03C419.21 174.77 415.99 180.07 410.3 180.07Z" fill="#ffff"/>
<path d="M638.629 156.37C641.259 156.37 643.409 156.95 644.909 157.63L646.189 152.94C644.989 152.29 642.259 151.51 638.379 151.51C628.529 151.51 621.119 157.91 621.119 168.51C621.119 178.32 627.349 184.76 637.579 184.76C641.479 184.76 644.549 184 645.939 183.29L644.969 178.65C643.419 179.35 640.929 179.82 638.539 179.82C631.449 179.82 627.319 175.32 627.319 168.21C627.319 160.47 632.049 156.37 638.629 156.37Z" fill="#ffff"/>
<path d="M525.419 152.01H519.529V184.25H538.679V179.31H525.419V152.01Z" fill="#ffff"/>
<path d="M512.828 170.43V152.02H506.938V170.82C506.938 177.14 504.388 180.05 500.148 180.05C496.158 180.05 493.538 177.12 493.538 170.82V152.02H487.648V170.47C487.648 180.61 492.498 184.8 499.928 184.8C507.718 184.79 512.828 180.36 512.828 170.43Z" fill="#ffff"/>
<path d="M456.1 152.01H450.65V163.26C450.65 168.19 450.76 172.34 451.18 176.62L451.07 176.65C449.58 173.15 447.71 169.4 445.58 165.85L437.25 152.01H430.52V184.25H435.97V172.72C435.97 167.43 435.89 163.17 435.66 158.99L435.81 158.96C437.4 162.61 439.5 166.56 441.59 170.08L450.01 184.26H456.11V152.01H456.1Z" fill="#ffff"/>
<path d="M481.298 200.37H475.408V232.61H481.298V200.37Z" fill="#ffff"/>
<path d="M434.918 217.49V217.36C437.928 216.29 440.728 213.49 440.728 209.37C440.728 206.63 439.728 204.41 437.978 202.95C435.818 201.15 432.098 200.37 428.108 200.37C424.118 200.37 421.478 200.65 419.248 201.06V232.61H425.048V219.46H427.988C431.308 219.54 432.828 220.89 433.748 225.06C434.638 229.04 435.408 231.68 435.898 232.61H441.898C441.258 231.36 440.388 227.69 439.378 223.69C438.578 220.58 437.238 218.37 434.918 217.49ZM428.508 215.17H425.048V205.06C425.638 204.91 426.828 204.77 428.678 204.77C432.458 204.78 434.908 206.41 434.908 209.9C434.908 213.08 432.468 215.17 428.508 215.17Z" fill="#ffff"/>
<path d="M460.969 215.11C459.719 219.02 458.549 222.96 457.689 226.76H457.589C456.749 222.86 455.649 219.09 454.429 215.02L450.029 200.36H443.609L454.039 232.6H460.789L471.929 200.36H465.659L460.969 215.11Z" fill="#ffff"/>
<path d="M522.048 218.3H534.198V213.5H522.048V205.21H534.918V200.37H516.158V232.6H535.628V227.76H522.048V218.3Z" fill="#ffff"/>
<path d="M503.869 204.72C506.499 204.72 508.649 205.3 510.149 205.98L511.429 201.29C510.229 200.64 507.499 199.86 503.619 199.86C493.769 199.86 486.359 206.26 486.359 216.86C486.359 226.67 492.589 233.11 502.819 233.11C506.719 233.11 509.789 232.35 511.179 231.64L510.209 227C508.649 227.7 506.169 228.17 503.779 228.17C496.689 228.17 492.559 223.67 492.559 216.56C492.559 208.82 497.289 204.72 503.869 204.72Z" fill="#ffff"/>
<path d="M381.039 213.84C376.729 212.2 374.869 211.03 374.869 208.56C374.869 206.66 376.459 204.68 380.189 204.68C383.219 204.68 385.469 205.6 386.629 206.21L388.039 201.46C386.359 200.61 383.799 199.87 380.309 199.87C373.319 199.87 368.899 203.85 368.899 209.13C368.899 213.75 372.299 216.61 377.629 218.5C381.699 219.98 383.339 221.42 383.339 223.85C383.339 226.49 381.239 228.25 377.479 228.25C374.479 228.25 371.589 227.29 369.689 226.19L368.379 231.07C370.139 232.15 373.679 233.13 377.089 233.13C385.409 233.13 389.319 228.63 389.319 223.44C389.329 218.79 386.639 215.97 381.039 213.84Z" fill="#ffff"/>
<path d="M400.509 218.3H412.659V213.5H400.509V205.21H413.389V200.37H394.619V232.6H414.099V227.76H400.509V218.3Z" fill="#ffff"/>
<path d="M552.029 213.84C547.729 212.2 545.859 211.03 545.859 208.56C545.859 206.66 547.449 204.68 551.179 204.68C554.209 204.68 556.459 205.6 557.619 206.21L559.029 201.46C557.349 200.61 554.789 199.87 551.299 199.87C544.309 199.87 539.889 203.85 539.889 209.13C539.889 213.75 543.289 216.61 548.619 218.5C552.689 219.98 554.329 221.42 554.329 223.85C554.329 226.49 552.229 228.25 548.469 228.25C545.469 228.25 542.579 227.29 540.679 226.19L539.369 231.07C541.129 232.15 544.669 233.13 548.079 233.13C556.399 233.13 560.309 228.63 560.309 223.44C560.319 218.79 557.629 215.97 552.029 213.84Z" fill="#ffff"/>
<path d="M64.7695 125.71C64.7695 111.11 74.2595 102.35 88.1295 102.35V77.5299C88.1295 70.2299 83.2595 65.3599 76.4495 65.3599C69.6395 65.3599 64.7695 70.2299 64.7695 77.5299V125.71Z" fill="url(#paint0_linear_578_4328)"/>
<path d="M106.14 233.5C111.98 233.5 117.33 232.53 122.2 230.82C97.6195 234.96 88.1295 218.17 88.1295 199.19V121.33H116.6C123.17 121.33 127.55 117.44 127.55 111.84C127.55 106.24 123.17 102.35 116.6 102.35H88.1295C74.2595 102.35 64.7695 111.11 64.7695 125.71V192.62C64.7695 219.39 80.0995 233.5 106.14 233.5Z" fill="url(#paint1_linear_578_4328)"/>
<path d="M122.199 230.82C131.929 227.17 139.479 220.36 144.339 210.38L133.389 190.67C128.519 205.27 120.009 213.06 108.329 213.06C96.1589 213.06 88.1289 206 88.1289 189.94V199.19C88.1289 218.17 97.6189 234.96 122.199 230.82Z" fill="url(#paint2_linear_578_4328)"/>
<path d="M222.2 226.93C166.72 235.2 149.2 205.52 149.2 167.32C149.2 139.58 166.23 120.6 190.81 120.6C199.81 120.6 207.36 122.55 214.17 125.71C217.33 127.17 220.01 127.66 222.44 127.66C228.28 127.66 232.17 123.77 232.17 117.93C232.17 114.28 229.98 110.63 224.87 108.2C215.62 103.58 203.7 100.9 190.8 100.9C152.35 100.9 125.83 128.15 125.83 167.81C125.83 206.74 151.38 233.75 192.5 233.75C203.71 233.74 213.44 231.55 222.2 226.93Z" fill="url(#paint3_linear_578_4328)"/>
<path d="M125.85 167.8C125.85 128.14 152.37 100.89 190.82 100.89C203.72 100.89 215.64 103.57 224.89 108.19C230 110.62 232.19 114.27 232.19 117.92C232.19 123.76 228.3 127.65 222.46 127.65C220.03 127.65 217.35 127.16 214.19 125.7C205.92 121.81 197.89 120.59 190.83 120.59C156.99 120.6 125.85 142.01 125.85 167.8Z" fill="url(#paint4_linear_578_4328)"/>
<path d="M271.11 108.68C268.92 110.87 267.7 113.55 267.7 116.71C267.7 124.74 275.24 136.66 292.76 148.83L312.71 162.7C327.31 172.92 333.15 182.65 333.15 197.25C333.15 207.71 329.01 216.72 322.2 223.04C324.63 220.85 326.09 217.93 326.09 214.04C326.09 205.52 317.57 192.14 299.32 179.49L281.07 166.84C265.74 156.13 259.66 146.16 259.66 132.53C259.66 124.5 262.58 117.2 267.45 111.85C268.68 110.62 269.89 109.65 271.11 108.68Z" fill="url(#paint5_linear_578_4328)"/>
<path d="M255.299 217.93C255.299 221.82 257.249 224.99 262.359 227.42C269.419 230.83 280.849 233.75 291.069 233.75C303.969 233.75 314.669 229.86 322.219 223.04C324.649 220.85 326.109 217.93 326.109 214.04C326.109 205.52 317.589 192.14 299.339 179.49C307.609 185.33 311.019 190.2 311.019 197.25C311.019 207.71 302.749 214.77 290.819 214.77C279.379 214.77 269.649 208.93 264.299 208.93C258.949 208.93 255.299 212.58 255.299 217.93Z" fill="url(#paint6_linear_578_4328)"/>
<path d="M292.769 148.83C284.979 143.23 281.579 138.12 281.579 132.04C281.579 124.25 287.909 119.39 296.909 119.39C308.349 119.39 313.699 124.74 320.509 124.74C325.859 124.74 329.509 121.09 329.509 115.74C329.509 111.85 327.559 108.68 322.449 106.25C314.419 102.36 305.659 100.9 296.169 100.9C286.189 100.9 277.429 103.82 271.109 108.69C268.919 110.88 267.699 113.56 267.699 116.72C267.699 124.74 275.249 136.66 292.769 148.83Z" fill="url(#paint7_linear_578_4328)"/>
<path d="M149.209 167.32C149.209 205.52 166.729 235.21 222.209 226.93C239.969 217.68 252.629 198.95 261.379 170.24L266.489 153.45C261.619 147.12 259.679 140.07 259.679 132.52C259.679 124.49 262.599 117.19 267.469 111.84C260.169 119.63 254.089 131.06 249.219 147.12L243.619 165.61C233.639 198.22 217.829 213.79 193.249 213.79C166.239 213.79 149.209 195.06 149.209 167.32Z" fill="url(#paint8_linear_578_4328)"/>
<defs>
<linearGradient id="paint0_linear_578_4328" x1="76.4526" y1="71.7867" x2="76.4526" y2="119.964" gradientUnits="userSpaceOnUse">
<stop stop-color="#FFC708"/>
<stop offset="0.9997" stop-color="#F05731"/>
<stop offset="1" stop-color="#F05731"/>
</linearGradient>
<linearGradient id="paint1_linear_578_4328" x1="102.935" y1="108.808" x2="90.3358" y2="199.965" gradientUnits="userSpaceOnUse">
<stop stop-color="#F80000"/>
<stop offset="1" stop-color="#EE3984"/>
</linearGradient>
<linearGradient id="paint2_linear_578_4328" x1="85.4412" y1="216.644" x2="151.402" y2="195.714" gradientUnits="userSpaceOnUse">
<stop stop-color="#EE3984"/>
<stop offset="0.9997" stop-color="#7800DA"/>
<stop offset="1" stop-color="#7800DA"/>
</linearGradient>
<linearGradient id="paint3_linear_578_4328" x1="175.106" y1="134.101" x2="199.207" y2="219.09" gradientUnits="userSpaceOnUse">
<stop stop-color="#FF0000"/>
<stop offset="0.9994" stop-color="#EE3984"/>
<stop offset="1" stop-color="#EE3984"/>
</linearGradient>
<linearGradient id="paint4_linear_578_4328" x1="125.847" y1="134.347" x2="232.179" y2="134.347" gradientUnits="userSpaceOnUse">
<stop stop-color="#FFC708"/>
<stop offset="1" stop-color="#FA3B00"/>
</linearGradient>
<linearGradient id="paint5_linear_578_4328" x1="259.675" y1="165.857" x2="333.159" y2="165.857" gradientUnits="userSpaceOnUse">
<stop stop-color="#FF0000"/>
<stop offset="1" stop-color="#EE3984"/>
</linearGradient>
<linearGradient id="paint6_linear_578_4328" x1="318.95" y1="201.325" x2="254.257" y2="218.45" gradientUnits="userSpaceOnUse">
<stop stop-color="#EE3984"/>
<stop offset="1" stop-color="#7800DA"/>
</linearGradient>
<linearGradient id="paint7_linear_578_4328" x1="267.704" y1="124.858" x2="329.508" y2="124.858" gradientUnits="userSpaceOnUse">
<stop stop-color="#FFC708"/>
<stop offset="1" stop-color="#F05731"/>
</linearGradient>
<linearGradient id="paint8_linear_578_4328" x1="186.688" y1="203.869" x2="231.719" y2="130.298" gradientUnits="userSpaceOnUse">
<stop stop-color="#EE3984"/>
<stop offset="1" stop-color="#7800DA"/>
</linearGradient>
</defs>
</svg>
