<svg width="21" height="21" viewBox="0 0 21 21" fill="none" xmlns="http://www.w3.org/2000/svg">
<path d="M20.5668 4.71999L15.8481 0.859985L14.5248 2.38999L19.2435 6.24999L20.5668 4.71999ZM6.08249 2.38999L4.76947 0.859985L0.0507812 4.70999L1.37407 6.23998L6.08249 2.38999ZM10.8217 6.99999H9.28299V13L14.1556 15.85L14.9249 14.62L10.8217 12.25V6.99999ZM10.3088 2.99999C5.21056 2.99999 1.07658 7.02999 1.07658 12C1.07658 16.97 5.2003 21 10.3088 21C12.7573 21 15.1056 20.0518 16.837 18.3639C18.5683 16.6761 19.541 14.3869 19.541 12C19.541 9.61304 18.5683 7.32385 16.837 5.63602C15.1056 3.9482 12.7573 2.99999 10.3088 2.99999ZM10.3088 19C6.33894 19 3.12819 15.87 3.12819 12C3.12819 8.12999 6.33894 4.99999 10.3088 4.99999C14.2786 4.99999 17.4894 8.12999 17.4894 12C17.4894 15.87 14.2786 19 10.3088 19Z" fill="black"/>
</svg>
