<svg width="25" height="24" viewBox="0 0 25 24" fill="none" xmlns="http://www.w3.org/2000/svg">
<path d="M12.8239 7H11.2852V13L16.6706 16.15L17.44 14.92L12.8239 12.25V7Z" fill="black"/>
<path d="M12.2985 2C6.63611 2 2.05078 6.48 2.05078 12C2.05078 17.52 6.63611 22 12.2985 22C17.9712 22 22.5668 17.52 22.5668 12C22.5668 6.48 17.9712 2 12.2985 2ZM12.3088 20C7.77475 20 4.10238 16.42 4.10238 12C4.10238 7.58 7.77475 4 12.3088 4C16.8428 4 20.5152 7.58 20.5152 12C20.5152 16.42 16.8428 20 12.3088 20Z" fill="black"/>
</svg>
