<svg width="23" height="22" viewBox="0 0 23 22" fill="none" xmlns="http://www.w3.org/2000/svg">
<path d="M20.5414 3H10.2834L9.2576 0H2.07699C0.948612 0 0.0253906 0.9 0.0253906 2V17C0.0253906 18.1 0.948612 19 2.07699 19H10.2834L11.3092 22H20.5414C21.6698 22 22.593 21.1 22.593 20V5C22.593 3.9 21.6698 3 20.5414 3ZM6.1802 15C3.34899 15 1.05119 12.76 1.05119 10C1.05119 7.24 3.34899 5 6.1802 5C7.56503 5 8.72419 5.5 9.61663 6.3L8.26258 7.57C7.87277 7.21 7.19574 6.79 6.1802 6.79C4.3953 6.79 2.94892 8.23 2.94892 10C2.94892 11.77 4.3953 13.21 6.1802 13.21C8.24206 13.21 9.09348 11.77 9.17554 10.8H6.1802V9.09H10.981C11.0528 9.4 11.104 9.7 11.104 10.11C11.104 12.97 9.14476 15 6.1802 15ZM12.5094 9.58H16.3049C15.8638 10.83 15.1662 12.01 14.202 13.05C13.884 12.7 13.5865 12.33 13.3198 11.95L12.5094 9.58ZM21.0543 19.5C21.0543 20.05 20.5927 20.5 20.0285 20.5H13.3608L15.4124 18L14.3456 14.9L17.5256 18L18.4693 17.08L15.0842 13.83L15.1047 13.81C16.2638 12.56 17.0845 11.12 17.5666 9.59H19.5156V8.29H14.8687V7H13.5455V8.29H12.0683L10.7553 4.5H20.0285C20.5927 4.5 21.0543 4.95 21.0543 5.5V19.5Z" fill="black"/>
</svg>
