<svg width="32" height="24" viewBox="0 0 32 24" fill="none" xmlns="http://www.w3.org/2000/svg">
<g clip-path="url(#clip0_476_4295)">
<mask id="mask0_476_4295" style="mask-type:luminance" maskUnits="userSpaceOnUse" x="0" y="0" width="32" height="24">
<path d="M0 0H32V24H0V0Z" fill="white"/>
</mask>
<g mask="url(#mask0_476_4295)">
<path fill-rule="evenodd" clip-rule="evenodd" d="M0 0H32V24H0V0Z" fill="#F7FCFF"/>
<path fill-rule="evenodd" clip-rule="evenodd" d="M0 14.667V16.667H32V14.667H0ZM0 18.333V20.333H32V18.333H0ZM0 7.333V9.333H32V7.333H0ZM0 22V24H32V22H0ZM0 11V13H32V11H0ZM0 0V2H32V0H0ZM0 3.667V5.667H32V3.667H0Z" fill="#E31D1C"/>
<path d="M0 0H20V13H0V0Z" fill="#2E42A5"/>
<path fill-rule="evenodd" clip-rule="evenodd" d="M1.7217 2.93903L0.995703 3.44803L1.2407 2.54203L0.595703 1.96803H1.4387L1.7207 1.22803L2.0517 1.96803H2.7697L2.2057 2.54203L2.4237 3.44803L1.7217 2.93903ZM5.7217 2.93903L4.9957 3.44803L5.2407 2.54203L4.5967 1.96803H5.4387L5.7207 1.22803L6.0517 1.96803H6.7697L6.2057 2.54203L6.4237 3.44803L5.7217 2.93903ZM8.9957 3.44803L9.7217 2.93803L10.4237 3.44803L10.2057 2.54203L10.7697 1.96803H10.0517L9.7207 1.22803L9.4387 1.96803H8.5967L9.2407 2.54203L8.9957 3.44803ZM13.7217 2.93803L12.9957 3.44803L13.2407 2.54203L12.5967 1.96803H13.4387L13.7207 1.22803L14.0517 1.96803H14.7697L14.2057 2.54203L14.4237 3.44803L13.7217 2.93803ZM0.995703 7.44903L1.7217 6.93903L2.4237 7.44903L2.2057 6.54303L2.7697 5.96903H2.0517L1.7207 5.22903L1.4387 5.96903H0.595703L1.2407 6.54303L0.995703 7.44903ZM5.7217 6.93903L4.9957 7.44903L5.2407 6.54303L4.5967 5.96903H5.4387L5.7207 5.22903L6.0517 5.96903H6.7697L6.2057 6.54303L6.4237 7.44903L5.7217 6.93903ZM8.9957 7.44903L9.7217 6.93903L10.4237 7.44903L10.2057 6.54303L10.7697 5.96903H10.0517L9.7207 5.22903L9.4387 5.96903H8.5967L9.2407 6.54303L8.9957 7.44903ZM13.7217 6.93903L12.9957 7.44903L13.2407 6.54303L12.5967 5.96903H13.4387L13.7207 5.22903L14.0517 5.96903H14.7697L14.2057 6.54303L14.4237 7.44903L13.7217 6.93903ZM0.995703 11.449L1.7217 10.939L2.4237 11.449L2.2057 10.543L2.7697 9.96903H2.0517L1.7207 9.22903L1.4387 9.96903H0.595703L1.2407 10.543L0.995703 11.448V11.449ZM5.7217 10.939L4.9957 11.449L5.2407 10.543L4.5967 9.96903H5.4387L5.7207 9.22903L6.0517 9.96903H6.7697L6.2057 10.543L6.4237 11.448L5.7217 10.939ZM8.9957 11.449L9.7217 10.939L10.4237 11.449L10.2057 10.543L10.7697 9.96903H10.0517L9.7207 9.22903L9.4387 9.96903H8.5967L9.2407 10.543L8.9957 11.448V11.449ZM13.7217 10.939L12.9957 11.449L13.2407 10.543L12.5967 9.96903H13.4387L13.7207 9.22903L14.0517 9.96903H14.7697L14.2057 10.543L14.4237 11.448L13.7217 10.939ZM16.9957 3.44903L17.7217 2.93903L18.4237 3.44903L18.2057 2.54303L18.7697 1.96903H18.0517L17.7207 1.22903L17.4387 1.96903H16.5957L17.2407 2.54303L16.9957 3.44903ZM17.7217 6.93903L16.9957 7.44903L17.2407 6.54303L16.5957 5.96903H17.4387L17.7207 5.22903L18.0517 5.96903H18.7697L18.2057 6.54303L18.4237 7.44903L17.7217 6.93903ZM16.9957 11.449L17.7217 10.939L18.4237 11.449L18.2057 10.543L18.7697 9.96903H18.0517L17.7207 9.22903L17.4387 9.96903H16.5957L17.2407 10.543L16.9957 11.448V11.449ZM3.7217 4.93803L2.9957 5.44803L3.2407 4.54203L2.5957 3.96803H3.4387L3.7207 3.22803L4.0517 3.96803H4.7697L4.2057 4.54203L4.4237 5.44803L3.7217 4.93803ZM6.9957 5.44803L7.7217 4.93803L8.4237 5.44803L8.2057 4.54203L8.7697 3.96803H8.0517L7.7207 3.22803L7.4387 3.96803H6.5957L7.2407 4.54203L6.9957 5.44803ZM11.7217 4.93803L10.9957 5.44803L11.2407 4.54203L10.5967 3.96803H11.4387L11.7207 3.22803L12.0517 3.96803H12.7697L12.2057 4.54203L12.4237 5.44803L11.7217 4.93803ZM2.9957 9.44803L3.7217 8.93803L4.4237 9.44803L4.2057 8.54203L4.7697 7.96803H4.0517L3.7207 7.22803L3.4387 7.96803H2.5957L3.2407 8.54203L2.9957 9.44803ZM7.7217 8.93803L6.9957 9.44803L7.2407 8.54203L6.5967 7.96803H7.4387L7.7207 7.22803L8.0517 7.96803H8.7697L8.2057 8.54203L8.4237 9.44803L7.7217 8.93803ZM10.9957 9.44803L11.7217 8.93803L12.4237 9.44803L12.2057 8.54203L12.7697 7.96803H12.0517L11.7207 7.22803L11.4387 7.96803H10.5967L11.2407 8.54203L10.9957 9.44803ZM15.7217 4.93803L14.9957 5.44803L15.2407 4.54203L14.5967 3.96803H15.4387L15.7207 3.22803L16.0517 3.96803H16.7697L16.2057 4.54203L16.4237 5.44803L15.7217 4.93803ZM14.9957 9.44803L15.7217 8.93803L16.4237 9.44803L16.2057 8.54203L16.7697 7.96803H16.0517L15.7207 7.22803L15.4387 7.96803H14.5967L15.2407 8.54203L14.9957 9.44803Z" fill="#F7FCFF"/>
</g>
</g>
<defs>
<clipPath id="clip0_476_4295">
<rect width="32" height="24" fill="white"/>
</clipPath>
</defs>
</svg>
