<svg width="20" height="20" viewBox="0 0 20 20" fill="none" xmlns="http://www.w3.org/2000/svg">
<path d="M13.442 2.79582C13.5286 2.53007 13.717 2.30953 13.966 2.18255C14.2149 2.05558 14.504 2.03255 14.7699 2.11851L15.0601 2.21527V1.9074C15.0601 1.62745 15.1713 1.35897 15.3692 1.16102C15.5671 0.963067 15.8355 0.851858 16.1154 0.851858C16.3953 0.851858 16.6637 0.963067 16.8616 1.16102C17.0595 1.35897 17.1707 1.62745 17.1707 1.9074V2.21527L17.4609 2.11851C17.7223 2.04768 18.001 2.08012 18.2392 2.20911C18.4774 2.33811 18.6569 2.55378 18.7405 2.81149C18.8241 3.06919 18.8055 3.34919 18.6884 3.59352C18.5714 3.83785 18.3649 4.0278 18.1116 4.12404L17.8214 4.2208L18.0061 4.4671C18.0879 4.57959 18.1466 4.70714 18.179 4.84241C18.2113 4.97769 18.2166 5.11802 18.1945 5.25535C18.1725 5.39268 18.1235 5.52429 18.0504 5.64261C17.9773 5.76094 17.8816 5.86366 17.7687 5.94486C17.6562 6.02666 17.5287 6.08541 17.3935 6.11776C17.2582 6.1501 17.1179 6.15539 16.9806 6.13331C16.8433 6.11124 16.7118 6.06225 16.5935 5.98915C16.4752 5.91605 16.3725 5.82029 16.2913 5.70736L16.1154 5.46107L15.9395 5.70736C15.7751 5.93482 15.5271 6.08763 15.25 6.13216C14.9729 6.1767 14.6895 6.10933 14.4621 5.94486C14.2347 5.78039 14.082 5.5323 14.0374 5.25517C13.9929 4.97803 14.0603 4.69455 14.2247 4.4671L14.4094 4.2208L14.1192 4.12404C13.9869 4.08217 13.8644 4.01442 13.7585 3.92474C13.6527 3.83506 13.5658 3.72523 13.5028 3.60164C13.4398 3.47805 13.402 3.34317 13.3915 3.20483C13.3811 3.06649 13.3983 2.92746 13.442 2.79582ZM16.2033 16.9929C16.1608 17.0413 16.1137 17.0855 16.0626 17.1248C14.3289 18.6554 12.0961 19.5 9.78372 19.5C7.47132 19.5 5.23851 18.6554 3.50479 17.1248C3.45376 17.0855 3.40664 17.0413 3.36409 16.9929C1.95233 15.7006 0.964204 14.0116 0.52941 12.1475C0.094616 10.2834 0.233479 8.3314 0.927771 6.54767C1.62206 4.76395 2.83933 3.23188 4.4198 2.1526C6.00026 1.07331 7.87005 0.497241 9.78372 0.50001C10.0739 0.50001 10.3729 0.517602 10.6631 0.543991C10.9418 0.568576 11.1993 0.702838 11.3791 0.917266C11.5588 1.13169 11.6461 1.40874 11.6217 1.6875C11.5949 1.96699 11.4588 2.22458 11.243 2.40416C11.0273 2.58374 10.7493 2.67077 10.4697 2.64628C10.2419 2.6214 10.0128 2.60965 9.78372 2.6111C8.39742 2.61014 7.0389 2.99987 5.86383 3.73562C4.68877 4.47136 3.74471 5.52336 3.13983 6.77105C2.53496 8.01874 2.29375 9.41164 2.44384 10.7901C2.59393 12.1686 3.12926 13.4769 3.98847 14.5651C4.67125 13.6977 5.53968 12.9944 6.52993 12.5068C5.89616 11.8649 5.46634 11.0498 5.29454 10.1641C5.12275 9.27839 5.21665 8.36166 5.56445 7.52922C5.91224 6.69678 6.49838 5.98581 7.24914 5.48575C7.9999 4.98569 8.88174 4.71887 9.78372 4.71887C10.6857 4.71887 11.5675 4.98569 12.3183 5.48575C13.0691 5.98581 13.6552 6.69678 14.003 7.52922C14.3508 8.36166 14.4447 9.27839 14.2729 10.1641C14.1011 11.0498 13.6713 11.8649 13.0375 12.5068C14.0278 12.9944 14.8962 13.6977 15.579 14.5651C16.61 13.267 17.1711 11.6578 17.1707 9.99991C17.1709 9.70298 17.1533 9.40631 17.1179 9.11149C17.1011 8.84206 17.1881 8.5764 17.3611 8.36917C17.534 8.16193 17.7798 8.02886 18.0478 7.99731C18.3159 7.96577 18.5858 8.03816 18.8022 8.19958C19.0185 8.36101 19.1648 8.59921 19.2109 8.8652C19.2565 9.24173 19.28 9.62062 19.2812 9.99991C19.2817 11.3154 19.0083 12.6166 18.4784 13.8205C17.9485 15.0245 17.1737 16.1049 16.2033 16.9929ZM9.78372 11.7591C10.2707 11.7591 10.7468 11.6147 11.1517 11.3441C11.5566 11.0734 11.8722 10.6888 12.0586 10.2387C12.245 9.78869 12.2937 9.29348 12.1987 8.81572C12.1037 8.33795 11.8692 7.8991 11.5248 7.55465C11.1805 7.21021 10.7417 6.97563 10.2641 6.8806C9.78645 6.78557 9.29136 6.83434 8.84143 7.02075C8.3915 7.20717 8.00694 7.52285 7.73637 7.92788C7.46581 8.33291 7.3214 8.80909 7.3214 9.29621C7.32371 9.94871 7.58388 10.5738 8.04515 11.0352C8.50643 11.4966 9.13138 11.7568 9.78372 11.7591ZM9.78372 17.3887C11.3087 17.3902 12.7963 16.9168 14.04 16.0341C13.5511 15.3635 12.9108 14.8178 12.1712 14.4417C11.4315 14.0655 10.6135 13.8694 9.78372 13.8694C8.95395 13.8694 8.13592 14.0655 7.39628 14.4417C6.65663 14.8178 6.01629 15.3635 5.52742 16.0341C6.77114 16.9168 8.25875 17.3902 9.78372 17.3887Z" fill="white"/>
</svg>
