<svg width="24" height="28" viewBox="0 0 24 28"  xmlns="http://www.w3.org/2000/svg">
<path d="M12.569 23.3491H0.0625V19.1455C0.0625 15.3622 6.69093 13.5406 10.0677 13.5406C11.9436 13.5406 14.9452 14.1011 17.1964 15.3622C16.1958 15.7825 15.4455 16.343 14.6951 17.0436C13.3194 16.4832 11.6935 17.7442 10.0677 17.7442C6.31573 17.7442 2.43873 18.3047 2.43873 19.1455V20.6868H12.8191C12.694 21.2473 12.569 21.9479 12.569 22.6485V23.3491ZM23.8248 22.6485C23.8248 25.3108 21.8238 27.5527 19.4475 27.5527C17.0713 27.5527 15.0703 25.3108 15.0703 22.6485C15.0703 19.9862 17.0713 17.7442 19.4475 17.7442C21.8238 17.7442 23.8248 19.9862 23.8248 22.6485ZM10.0677 3.73211C11.4434 3.73211 12.569 4.99321 12.569 6.53454C12.569 8.07587 11.4434 9.33697 10.0677 9.33697C8.69196 9.33697 7.56638 8.07587 7.56638 6.53454C7.56638 4.99321 8.69196 3.73211 10.0677 3.73211ZM10.0677 0.929688C7.31625 0.929688 5.06509 3.45187 5.06509 6.53454C5.06509 9.61721 7.31625 12.1394 10.0677 12.1394C12.8191 12.1394 15.0703 9.61721 15.0703 6.53454C15.0703 3.45187 12.8191 0.929688 10.0677 0.929688Z" />
</svg>
